<svg width="28" height="28" viewBox="0 0 28 28" fill="none" xmlns="http://www.w3.org/2000/svg">
<path d="M8.20212 0.0975134C6.71212 0.167513 5.69512 0.405513 4.80612 0.754514C3.88612 1.11351 3.10612 1.59451 2.32912 2.37351C1.55312 3.15251 1.07512 3.93351 0.719116 4.85451C0.374116 5.74551 0.141116 6.76351 0.0751161 8.25451C0.00911611 9.74451 -0.00488384 10.2245 0.00211616 14.0255C0.00911616 17.8265 0.0261161 18.3035 0.0981161 19.7975C0.169116 21.2865 0.406116 22.3035 0.755116 23.1935C1.11412 24.1135 1.59512 24.8935 2.37412 25.6705C3.15312 26.4465 3.93312 26.9235 4.85712 27.2805C5.74712 27.6245 6.76612 27.8595 8.25612 27.9245C9.74612 27.9895 10.2261 28.0045 14.0271 27.9975C17.8281 27.9905 18.3061 27.9735 19.8001 27.9025C21.2941 27.8315 22.3051 27.5935 23.1951 27.2455C24.1151 26.8855 24.8961 26.4055 25.6721 25.6255C26.4481 24.8455 26.9261 24.0645 27.2811 23.1425C27.6261 22.2525 27.8601 21.2335 27.9251 19.7445C27.9901 18.2505 28.0061 17.7735 27.9981 13.9715C27.9901 10.1695 27.9741 9.69351 27.9031 8.20051C27.8321 6.70751 27.5951 5.69351 27.2461 4.80351C26.8861 3.88351 26.4061 3.10351 25.6271 2.32651C24.8481 1.54951 24.0661 1.07251 23.1441 0.717513C22.2531 0.372513 21.2351 0.137513 19.7451 0.0735133C18.2551 0.00951325 17.7751 -0.00748663 13.9731 -0.000486626C10.1711 0.00651337 9.69512 0.0235133 8.20212 0.0955133M8.36612 25.4045C7.00112 25.3455 6.26012 25.1185 5.76612 24.9285C5.11212 24.6765 4.64612 24.3715 4.15412 23.8845C3.66212 23.3975 3.35912 22.9295 3.10412 22.2765C2.91212 21.7825 2.68112 21.0425 2.61712 19.6775C2.54812 18.2025 2.53312 17.7595 2.52512 14.0215C2.51712 10.2835 2.53112 9.84151 2.59612 8.36551C2.65412 7.00151 2.88212 6.25951 3.07212 5.76551C3.32412 5.11051 3.62812 4.64551 4.11612 4.15351C4.60412 3.66151 5.07112 3.35851 5.72412 3.10351C6.21712 2.91051 6.95812 2.68151 8.32212 2.61651C9.79812 2.54651 10.2411 2.53251 13.9781 2.52451C17.7151 2.51651 18.1591 2.53051 19.6361 2.59551C21.0001 2.65451 21.7421 2.88051 22.2351 3.07151C22.8891 3.32351 23.3551 3.62651 23.8471 4.11551C24.3391 4.60451 24.6421 5.06951 24.8981 5.72451C25.0911 6.21651 25.3201 6.95651 25.3841 8.32151C25.4541 9.79751 25.4701 10.2405 25.4771 13.9775C25.4841 17.7145 25.4711 18.1585 25.4061 19.6335C25.3461 20.9985 25.1201 21.7395 24.9301 22.2345C24.6781 22.8885 24.3741 23.3545 23.8851 23.8465C23.3961 24.3385 22.9301 24.6415 22.2771 24.8965C21.7841 25.0885 21.0431 25.3185 19.6801 25.3835C18.2041 25.4525 17.7611 25.4675 14.0231 25.4755C10.2851 25.4835 9.84212 25.4685 8.36612 25.4045ZM19.7791 6.51651C19.7811 7.44451 20.5341 8.19551 21.4621 8.19351C22.3901 8.19151 23.1411 7.43851 23.1391 6.51051C23.1371 5.58251 22.3841 4.83151 21.4561 4.83351C20.5281 4.83551 19.7781 5.58851 19.7791 6.51651ZM6.81212 14.0125C6.82012 17.9825 10.0441 21.1945 14.0141 21.1865C17.9841 21.1785 21.1971 17.9545 21.1901 13.9845C21.1821 10.0145 17.9571 6.80151 13.9871 6.80951C10.0171 6.81751 6.80412 10.0425 6.81212 14.0125ZM9.33512 14.0075C9.33012 11.4305 11.4151 9.33651 13.9931 9.33151C16.5701 9.32651 18.6641 11.4115 18.6691 13.9895C18.6741 16.5665 16.5891 18.6605 14.0111 18.6655C11.4341 18.6705 9.34012 16.5865 9.33512 14.0095" fill="white"/>
</svg>
