<svg width="32" height="24" viewBox="0 0 32 24" fill="none" xmlns="http://www.w3.org/2000/svg">
<path d="M31.331 4.24756C30.963 2.86156 29.879 1.77056 28.502 1.39956C26.006 0.726562 16 0.726562 16 0.726562C16 0.726562 5.993 0.726562 3.498 1.39956C2.121 1.76956 1.037 2.86156 0.669 4.24756C0 6.75956 0 11.9996 0 11.9996C0 11.9996 0 17.2406 0.669 19.7516C1.037 21.1376 2.121 22.2286 3.498 22.5986C5.994 23.2716 16 23.2716 16 23.2716C16 23.2716 26.007 23.2716 28.502 22.5986C29.879 22.2286 30.963 21.1366 31.331 19.7516C32 17.2396 32 11.9996 32 11.9996C32 11.9996 32 6.75956 31.331 4.24756ZM12.727 16.7576V7.24156L21.091 11.9996L12.727 16.7576Z" fill="white"/>
</svg>
