<svg width="22" height="22" viewBox="0 0 22 22" fill="none" xmlns="http://www.w3.org/2000/svg">
<path fill-rule="evenodd" clip-rule="evenodd" d="M10.6853 1.32024C12.0759 0.447843 13.7213 0.0731849 15.3525 0.257552C16.9837 0.441919 18.504 1.1744 19.6648 2.33516C20.8255 3.49592 21.558 5.01624 21.7424 6.64742C21.9267 8.2786 21.5521 9.92406 20.6797 11.3146C19.8073 12.7052 18.4888 13.7585 16.9399 14.3023C15.542 14.7931 14.031 14.8426 12.61 14.4506L12.1164 14.9442C11.6008 15.4599 10.9014 15.7498 10.1722 15.7499H10C9.93369 15.7499 9.87011 15.7763 9.82322 15.8231C9.77634 15.87 9.75 15.9336 9.75 15.9999V16.9999C9.75 17.464 9.56563 17.9092 9.23744 18.2374C8.90925 18.5655 8.46413 18.7499 8 18.7499H7C6.93369 18.7499 6.87011 18.7763 6.82322 18.8231C6.77634 18.87 6.75 18.9336 6.75 18.9999V19.9999C6.75 20.464 6.56563 20.9092 6.23744 21.2374C5.90925 21.5655 5.46413 21.7499 5 21.7499H2C1.53587 21.7499 1.09075 21.5655 0.762563 21.2374C0.434374 20.9092 0.25 20.464 0.25 19.9999V17.8279C0.250156 17.0987 0.539959 16.3992 1.05567 15.8836L7.54935 9.38991C7.15728 7.96894 7.20678 6.45797 7.6976 5.05999C8.24139 3.51111 9.29473 2.19263 10.6853 1.32024ZM15.184 1.74806C13.8903 1.60184 12.5853 1.89898 11.4825 2.59088C10.3796 3.28278 9.54419 4.32847 9.1129 5.55689C8.68161 6.78531 8.67998 8.12373 9.10826 9.3532C9.2029 9.6249 9.13378 9.9268 8.93033 10.1302L2.11633 16.9442C1.88193 17.1786 1.75011 17.4965 1.75 17.8279V19.9999C1.75 20.0662 1.77634 20.1298 1.82322 20.1767C1.87011 20.2236 1.93369 20.2499 2 20.2499H5C5.06631 20.2499 5.12989 20.2236 5.17678 20.1767C5.22366 20.1298 5.25 20.0662 5.25 19.9999V18.9999C5.25 18.5358 5.43437 18.0907 5.76256 17.7625C6.09075 17.4343 6.53587 17.2499 7 17.2499H8C8.06631 17.2499 8.12989 17.2236 8.17678 17.1767C8.22366 17.1298 8.25 17.0662 8.25 16.9999V15.9999C8.25 15.5358 8.43437 15.0907 8.76256 14.7625C9.09075 14.4343 9.53587 14.2499 10 14.2499H10.1718C10.5033 14.2498 10.8213 14.1181 11.0556 13.8837L11.8697 13.0696C12.0731 12.8661 12.375 12.797 12.6467 12.8917C13.8762 13.3199 15.2146 13.3183 16.443 12.887C17.6714 12.4557 18.7171 11.6203 19.409 10.5175C20.1009 9.4146 20.3981 8.10958 20.2519 6.81589C20.1056 5.5222 19.5247 4.31642 18.6041 3.39582C17.6835 2.47521 16.4777 1.89428 15.184 1.74806Z" fill="#727576"/>
<path d="M15.5 6.99992C15.7761 6.99992 16 6.77606 16 6.49992C16 6.22377 15.7761 5.99992 15.5 5.99992C15.2239 5.99992 15 6.22377 15 6.49992C15 6.77606 15.2239 6.99992 15.5 6.99992Z" fill="#727576"/>
<path fill-rule="evenodd" clip-rule="evenodd" d="M15.5 6.74992C15.6381 6.74992 15.75 6.63799 15.75 6.49992C15.75 6.36185 15.6381 6.24992 15.5 6.24992C15.3619 6.24992 15.25 6.36185 15.25 6.49992C15.25 6.63799 15.3619 6.74992 15.5 6.74992ZM14.25 6.49992C14.25 5.80956 14.8096 5.24992 15.5 5.24992C16.1904 5.24992 16.75 5.80956 16.75 6.49992C16.75 7.19027 16.1904 7.74992 15.5 7.74992C14.8096 7.74992 14.25 7.19027 14.25 6.49992Z" fill="#727576"/>
</svg>
