<svg width="58" height="39" viewBox="0 0 58 39" fill="none" xmlns="http://www.w3.org/2000/svg">
<mask id="path-1-outside-1_3389_657" maskUnits="userSpaceOnUse" x="0" y="0" width="58" height="39" fill="black">
<rect fill="white" width="58" height="39"/>
<path d="M14 37.4773C11.4318 37.4773 9.24432 36.7784 7.4375 35.3807C5.63068 33.9716 4.25 31.9318 3.29545 29.2614C2.34091 26.5795 1.86364 23.3409 1.86364 19.5455C1.86364 15.7727 2.34091 12.5511 3.29545 9.88068C4.26136 7.19886 5.64773 5.15341 7.45455 3.74432C9.27273 2.32386 11.4545 1.61364 14 1.61364C16.5455 1.61364 18.7216 2.32386 20.5284 3.74432C22.3466 5.15341 23.733 7.19886 24.6875 9.88068C25.6534 12.5511 26.1364 15.7727 26.1364 19.5455C26.1364 23.3409 25.6591 26.5795 24.7045 29.2614C23.75 31.9318 22.3693 33.9716 20.5625 35.3807C18.7557 36.7784 16.5682 37.4773 14 37.4773ZM14 33.7273C16.5455 33.7273 18.5227 32.5 19.9318 30.0455C21.3409 27.5909 22.0455 24.0909 22.0455 19.5455C22.0455 16.5227 21.7216 13.9489 21.0739 11.8239C20.4375 9.69886 19.517 8.07954 18.3125 6.96591C17.1193 5.85227 15.6818 5.29545 14 5.29545C11.4773 5.29545 9.50568 6.53977 8.08523 9.02841C6.66477 11.5057 5.95455 15.0114 5.95455 19.5455C5.95455 22.5682 6.27273 25.1364 6.90909 27.25C7.54545 29.3636 8.46023 30.9716 9.65341 32.0739C10.858 33.1761 12.3068 33.7273 14 33.7273ZM44.6845 37.4773C43.2527 37.4545 41.8209 37.1818 40.3891 36.6591C38.9573 36.1364 37.6505 35.2557 36.4686 34.017C35.2868 32.767 34.338 31.0795 33.622 28.9545C32.9061 26.8182 32.5482 24.1364 32.5482 20.9091C32.5482 17.8182 32.838 15.0795 33.4175 12.6932C33.997 10.2955 34.838 8.27841 35.9402 6.64205C37.0425 4.99432 38.372 3.74432 39.9289 2.89204C41.497 2.03977 43.2641 1.61364 45.23 1.61364C47.1845 1.61364 48.9232 2.00568 50.4459 2.78977C51.98 3.5625 53.23 4.64204 54.1959 6.02841C55.1618 7.41477 55.7868 9.01136 56.0709 10.8182H51.9118C51.5255 9.25 50.7755 7.94886 49.6618 6.91477C48.5482 5.88068 47.0709 5.36364 45.23 5.36364C42.5255 5.36364 40.3948 6.53977 38.838 8.89205C37.2925 11.2443 36.5141 14.5455 36.5027 18.7955H36.7755C37.4118 17.8295 38.1675 17.0057 39.0425 16.3239C39.9289 15.6307 40.9061 15.0966 41.9743 14.7216C43.0425 14.3466 44.1732 14.1591 45.3664 14.1591C47.3664 14.1591 49.1959 14.6591 50.855 15.6591C52.5141 16.6477 53.8436 18.017 54.8436 19.767C55.8436 21.5057 56.3436 23.5 56.3436 25.75C56.3436 27.9091 55.8607 29.8864 54.8948 31.6818C53.9289 33.4659 52.5709 34.8864 50.8209 35.9432C49.0823 36.9886 47.0368 37.5 44.6845 37.4773ZM44.6845 33.7273C46.1164 33.7273 47.4005 33.3693 48.5368 32.6534C49.6845 31.9375 50.588 30.9773 51.247 29.7727C51.9175 28.5682 52.2527 27.2273 52.2527 25.75C52.2527 24.3068 51.9289 22.9943 51.2811 21.8125C50.6448 20.6193 49.7641 19.6705 48.6391 18.9659C47.5255 18.2614 46.2527 17.9091 44.8209 17.9091C43.7414 17.9091 42.7357 18.125 41.8039 18.5568C40.872 18.9773 40.0539 19.5568 39.3493 20.2955C38.6561 21.0341 38.1107 21.8807 37.713 22.8352C37.3152 23.7784 37.1164 24.7727 37.1164 25.8182C37.1164 27.2045 37.4402 28.5 38.088 29.7045C38.747 30.9091 39.6448 31.8807 40.7811 32.6193C41.9289 33.358 43.23 33.7273 44.6845 33.7273Z"/>
</mask>
<path d="M7.4375 35.3807L6.82253 36.1692L6.82563 36.1716L7.4375 35.3807ZM3.29545 29.2614L2.35335 29.5967L2.3538 29.598L3.29545 29.2614ZM3.29545 9.88068L2.35462 9.54182L2.3538 9.54409L3.29545 9.88068ZM7.45455 3.74432L8.06952 4.53287L8.07019 4.53234L7.45455 3.74432ZM20.5284 3.74432L19.9104 4.53048L19.9158 4.53473L20.5284 3.74432ZM24.6875 9.88068L23.7454 10.216L23.7471 10.2208L24.6875 9.88068ZM24.7045 29.2614L25.6462 29.598L25.6466 29.5967L24.7045 29.2614ZM20.5625 35.3807L21.1744 36.1716L21.1775 36.1692L20.5625 35.3807ZM19.9318 30.0455L19.0646 29.5476L19.9318 30.0455ZM21.0739 11.8239L20.1159 12.1107L20.1173 12.1154L21.0739 11.8239ZM18.3125 6.96591L17.6302 7.69697L17.6336 7.70018L18.3125 6.96591ZM8.08523 9.02841L8.95274 9.52583L8.95371 9.52412L8.08523 9.02841ZM6.90909 27.25L5.95155 27.5383L6.90909 27.25ZM9.65341 32.0739L8.97483 32.8084L8.97832 32.8116L9.65341 32.0739ZM14 36.4773C11.6243 36.4773 9.6594 35.8352 8.04937 34.5897L6.82563 36.1716C8.82924 37.7216 11.2393 38.4773 14 38.4773V36.4773ZM8.05247 34.5921C6.42716 33.3246 5.14299 31.4591 4.23711 28.9248L2.3538 29.598C3.35701 32.4045 4.83421 34.6186 6.82253 36.1692L8.05247 34.5921ZM4.23756 28.926C3.33172 26.3811 2.86364 23.2624 2.86364 19.5455H0.863636C0.863636 23.4194 1.3501 26.778 2.35335 29.5967L4.23756 28.926ZM2.86364 19.5455C2.86364 15.8518 3.33157 12.7506 4.23711 10.2173L2.3538 9.54409C1.35025 12.3517 0.863636 15.6936 0.863636 19.5455H2.86364ZM4.23629 10.2195C5.15379 7.67213 6.44411 5.80048 8.06952 4.53287L6.83958 2.95577C4.85134 4.50634 3.36894 6.7256 2.35462 9.54182L4.23629 10.2195ZM8.07019 4.53234C9.69423 3.26356 11.6532 2.61364 14 2.61364V0.613635C11.2558 0.613635 8.85122 1.38417 6.8389 2.95629L8.07019 4.53234ZM14 2.61364C16.3468 2.61364 18.2989 3.26355 19.9104 4.53046L21.1465 2.95817C19.1443 1.38418 16.7441 0.613635 14 0.613635V2.61364ZM19.9158 4.53473C21.5506 5.80171 22.8397 7.67145 23.7454 10.216L25.6296 9.54536C24.6262 6.72627 23.1425 4.50511 21.141 2.9539L19.9158 4.53473ZM23.7471 10.2208C24.663 12.753 25.1364 15.8529 25.1364 19.5455H27.1364C27.1364 15.6926 26.6438 12.3493 25.6279 9.54054L23.7471 10.2208ZM25.1364 19.5455C25.1364 23.2624 24.6683 26.3811 23.7624 28.926L25.6466 29.5967C26.6499 26.778 27.1364 23.4194 27.1364 19.5455H25.1364ZM23.7629 28.9248C22.857 31.4591 21.5728 33.3246 19.9475 34.5921L21.1775 36.1692C23.1658 34.6186 24.643 32.4045 25.6462 29.598L23.7629 28.9248ZM19.9506 34.5897C18.3406 35.8352 16.3757 36.4773 14 36.4773V38.4773C16.7607 38.4773 19.1708 37.7216 21.1744 36.1716L19.9506 34.5897ZM14 34.7273C16.9496 34.7273 19.2358 33.2664 20.7991 30.5433L19.0646 29.5476C17.8096 31.7336 16.1413 32.7273 14 32.7273V34.7273ZM20.7991 30.5433C22.3327 27.8718 23.0455 24.1703 23.0455 19.5455H21.0455C21.0455 24.0115 20.3491 27.31 19.0646 29.5476L20.7991 30.5433ZM23.0455 19.5455C23.0455 16.457 22.7152 13.7789 22.0304 11.5323L20.1173 12.1154C20.728 14.1188 21.0455 16.5885 21.0455 19.5455H23.0455ZM22.0318 11.537C21.3616 9.29877 20.3657 7.50224 18.9914 6.23164L17.6336 7.70018C18.6684 8.65684 19.5134 10.099 20.1159 12.1107L22.0318 11.537ZM18.9948 6.23485C17.6103 4.94266 15.9266 4.29545 14 4.29545V6.29545C15.4371 6.29545 16.6283 6.76189 17.6302 7.69696L18.9948 6.23485ZM14 4.29545C11.0631 4.29545 8.78606 5.78324 7.21674 8.5327L8.95371 9.52412C10.2253 7.2963 11.8914 6.29545 14 6.29545V4.29545ZM7.21772 8.53098C5.67371 11.2237 4.95455 14.9296 4.95455 19.5455H6.95455C6.95455 15.0931 7.65584 11.7876 8.95273 9.52583L7.21772 8.53098ZM4.95455 19.5455C4.95455 22.6325 5.27881 25.3038 5.95155 27.5383L7.86663 26.9617C7.26665 24.9689 6.95455 22.5039 6.95455 19.5455H4.95455ZM5.95155 27.5383C6.62162 29.7639 7.6116 31.549 8.97484 32.8084L10.332 31.3393C9.30885 30.3941 8.46929 28.9634 7.86663 26.9617L5.95155 27.5383ZM8.97832 32.8116C10.3746 34.0893 12.0671 34.7273 14 34.7273V32.7273C12.5465 32.7273 11.3413 32.2629 10.3285 31.3361L8.97832 32.8116ZM44.6845 37.4773L44.6687 38.4772L44.6749 38.4772L44.6845 37.4773ZM40.3891 36.6591L40.0462 37.5984L40.3891 36.6591ZM36.4686 34.017L35.742 34.7041L35.7451 34.7074L36.4686 34.017ZM33.622 28.9545L32.6739 29.2723L32.6744 29.2738L33.622 28.9545ZM33.4175 12.6932L34.3893 12.9292L34.3895 12.9281L33.4175 12.6932ZM35.9402 6.64205L36.7696 7.20073L36.7714 7.19807L35.9402 6.64205ZM39.9289 2.89204L39.4513 2.01341L39.4487 2.01488L39.9289 2.89204ZM50.4459 2.78977L49.9881 3.67886L49.9961 3.68287L50.4459 2.78977ZM54.1959 6.02841L55.0164 5.45675L54.1959 6.02841ZM56.0709 10.8182V11.8182H57.2404L57.0588 10.6629L56.0709 10.8182ZM51.9118 10.8182L50.9409 11.0574L51.1283 11.8182H51.9118V10.8182ZM49.6618 6.91477L48.9814 7.64757L49.6618 6.91477ZM38.838 8.89205L38.004 8.34014L38.0022 8.34295L38.838 8.89205ZM36.5027 18.7955L35.5027 18.7928L35.5 19.7955H36.5027V18.7955ZM36.7755 18.7955V19.7955H37.3141L37.6105 19.3456L36.7755 18.7955ZM39.0425 16.3239L39.6572 17.1127L39.6585 17.1116L39.0425 16.3239ZM50.855 15.6591L50.3388 16.5156L50.3431 16.5181L50.855 15.6591ZM54.8436 19.767L53.9754 20.2632L53.9768 20.2656L54.8436 19.767ZM54.8948 31.6818L55.7742 32.1579L55.7754 32.1556L54.8948 31.6818ZM50.8209 35.9432L51.3362 36.8002L51.3379 36.7992L50.8209 35.9432ZM48.5368 32.6534L48.0076 31.8049L48.0038 31.8073L48.5368 32.6534ZM51.247 29.7727L50.3733 29.2864L50.3698 29.2927L51.247 29.7727ZM51.2811 21.8125L50.3987 22.2831L50.4042 22.2931L51.2811 21.8125ZM48.6391 18.9659L48.1044 19.811L48.1083 19.8134L48.6391 18.9659ZM41.8039 18.5568L42.2152 19.4684L42.2243 19.4641L41.8039 18.5568ZM39.3493 20.2955L38.6257 19.6052L38.6201 19.6111L39.3493 20.2955ZM37.713 22.8352L38.6344 23.2238L38.636 23.2198L37.713 22.8352ZM38.088 29.7045L37.2072 30.1782L37.2107 30.1846L38.088 29.7045ZM40.7811 32.6193L40.2361 33.4578L40.24 33.4602L40.7811 32.6193ZM44.7004 36.4774C43.3872 36.4566 42.0658 36.2066 40.732 35.7197L40.0462 37.5984C41.5761 38.157 43.1182 38.4525 44.6687 38.4771L44.7004 36.4774ZM40.732 35.7197C39.4614 35.2559 38.2811 34.468 37.1921 33.3267L35.7451 34.7074C37.0198 36.0433 38.4531 37.0169 40.0462 37.5984L40.732 35.7197ZM37.1953 33.33C36.1382 32.212 35.2529 30.663 34.5697 28.6353L32.6744 29.2738C33.423 31.4961 34.4354 33.3221 35.742 34.7041L37.1953 33.33ZM34.5702 28.6368C33.9 26.6367 33.5482 24.071 33.5482 20.9091H31.5482C31.5482 24.2018 31.9123 26.9997 32.6739 29.2723L34.5702 28.6368ZM33.5482 20.9091C33.5482 17.8782 33.8326 15.2214 34.3893 12.9292L32.4457 12.4572C31.8433 14.9377 31.5482 17.7581 31.5482 20.9091H33.5482ZM34.3895 12.9281C34.9478 10.6181 35.748 8.71731 36.7696 7.20073L35.1108 6.08336C33.9279 7.83951 33.0462 9.97276 32.4455 12.4582L34.3895 12.9281ZM36.7714 7.19807C37.7948 5.6682 39.0092 4.53555 40.4091 3.7692L39.4487 2.01488C37.7349 2.95308 36.2902 4.32044 35.1091 6.08602L36.7714 7.19807ZM40.4064 3.77067C41.8135 3.00591 43.4136 2.61364 45.23 2.61364V0.613635C43.1146 0.613635 41.1806 1.07363 39.4514 2.01342L40.4064 3.77067ZM45.23 2.61364C47.0479 2.61364 48.6258 2.97735 49.9881 3.67883L50.9037 1.90072C49.2205 1.03401 47.3212 0.613635 45.23 0.613635V2.61364ZM49.9961 3.68287C51.3844 4.38218 52.5061 5.3523 53.3754 6.60006L55.0164 5.45675C53.9539 3.93179 52.5756 2.74281 50.8958 1.89667L49.9961 3.68287ZM53.3754 6.60006C54.2477 7.85209 54.8205 9.30379 55.083 10.9735L57.0588 10.6629C56.7531 8.71894 56.0759 6.97746 55.0164 5.45675L53.3754 6.60006ZM56.0709 9.81818H51.9118V11.8182H56.0709V9.81818ZM52.8828 10.579C52.4528 8.83392 51.6079 7.35723 50.3423 6.18198L48.9814 7.64757C49.943 8.5405 50.5981 9.66608 50.9409 11.0574L52.8828 10.579ZM50.3423 6.18198C49.0062 4.94132 47.267 4.36364 45.23 4.36364V6.36364C46.8748 6.36364 48.0902 6.82004 48.9814 7.64757L50.3423 6.18198ZM45.23 4.36364C42.173 4.36364 39.7365 5.72247 38.004 8.34014L39.6719 9.44395C41.053 7.35707 42.8779 6.36364 45.23 6.36364V4.36364ZM38.0022 8.34295C36.3087 10.9206 35.5144 14.4411 35.5027 18.7928L37.5027 18.7981C37.5138 14.6498 38.2763 11.568 39.6737 9.44114L38.0022 8.34295ZM36.5027 19.7955H36.7755V17.7955H36.5027V19.7955ZM37.6105 19.3456C38.1895 18.4668 38.8718 17.7246 39.6572 17.1127L38.4278 15.5351C37.4632 16.2867 36.6341 17.1923 35.9404 18.2453L37.6105 19.3456ZM39.6585 17.1116C40.4586 16.4859 41.3395 16.0043 42.3056 15.6651L41.6431 13.778C40.4727 14.1889 39.3992 14.7754 38.4265 15.5361L39.6585 17.1116ZM42.3056 15.6651C43.2617 15.3295 44.2799 15.1591 45.3664 15.1591V13.1591C44.0665 13.1591 42.8233 13.3637 41.6431 13.778L42.3056 15.6651ZM45.3664 15.1591C47.1906 15.1591 48.8407 15.6126 50.3388 16.5155L51.3712 14.8026C49.5511 13.7056 47.5421 13.1591 45.3664 13.1591V15.1591ZM50.3431 16.5181C51.8475 17.4146 53.057 18.6561 53.9754 20.2632L55.7119 19.2709C54.6302 17.378 53.1806 15.8808 51.3669 14.8L50.3431 16.5181ZM53.9768 20.2656C54.8793 21.8348 55.3436 23.6532 55.3436 25.75H57.3436C57.3436 23.3468 56.808 21.1766 55.7105 19.2685L53.9768 20.2656ZM55.3436 25.75C55.3436 27.7538 54.8971 29.5668 54.0141 31.208L55.7754 32.1556C56.8243 30.2059 57.3436 28.0644 57.3436 25.75H55.3436ZM54.0154 31.2057C53.135 32.8319 51.9027 34.1217 50.304 35.0872L51.3379 36.7992C53.2391 35.651 54.7228 34.0999 55.7742 32.1579L54.0154 31.2057ZM50.3056 35.0862C48.7492 36.022 46.8916 36.4986 44.6942 36.4773L44.6749 38.4772C47.182 38.5014 49.4153 37.9552 51.3362 36.8002L50.3056 35.0862ZM44.6845 34.7273C46.292 34.7273 47.7632 34.3227 49.0699 33.4995L48.0038 31.8073C47.0377 32.416 45.9407 32.7273 44.6845 32.7273V34.7273ZM49.0661 33.5019C50.3618 32.6936 51.3841 31.6056 52.1243 30.2527L50.3698 29.2927C49.7918 30.349 49.0073 31.1814 48.0076 31.8049L49.0661 33.5019ZM52.1208 30.2591C52.88 28.8952 53.2527 27.3849 53.2527 25.75H51.2527C51.2527 27.0696 50.955 28.2412 50.3733 29.2864L52.1208 30.2591ZM53.2527 25.75C53.2527 24.1511 52.8922 22.6714 52.1581 21.3319L50.4042 22.2931C50.9655 23.3172 51.2527 24.4626 51.2527 25.75H53.2527ZM52.1635 21.3419C51.4465 19.9976 50.4459 18.9175 49.1699 18.1184L48.1083 19.8134C49.0823 20.4234 49.843 21.2411 50.3988 22.2831L52.1635 21.3419ZM49.1737 18.1208C47.8863 17.3064 46.425 16.9091 44.8209 16.9091V18.9091C46.0805 18.9091 47.1646 19.2164 48.1045 19.811L49.1737 18.1208ZM44.8209 16.9091C43.6037 16.9091 42.4537 17.1535 41.3834 17.6495L42.2243 19.4641C43.0177 19.0965 43.879 18.9091 44.8209 18.9091V16.9091ZM41.3926 17.6453C40.3436 18.1187 39.4193 18.7733 38.6257 19.6052L40.0729 20.9857C40.6884 20.3404 41.4005 19.8359 42.2152 19.4683L41.3926 17.6453ZM38.6201 19.6111C37.8431 20.4391 37.2328 21.3877 36.7899 22.4506L38.636 23.2198C38.9886 22.3737 39.4691 21.6291 40.0785 20.9798L38.6201 19.6111ZM36.7915 22.4467C36.3408 23.5155 36.1164 24.6422 36.1164 25.8182H38.1164C38.1164 24.9033 38.2896 24.0413 38.6344 23.2238L36.7915 22.4467ZM36.1164 25.8182C36.1164 27.3675 36.4801 28.826 37.2072 30.1782L38.9687 29.2309C38.4004 28.174 38.1164 27.0416 38.1164 25.8182H36.1164ZM37.2107 30.1846C37.9481 31.5322 38.9592 32.6277 40.2361 33.4578L41.3261 31.7809C40.3303 31.1336 39.546 30.2859 38.9652 29.2245L37.2107 30.1846ZM40.24 33.4602C41.5598 34.3096 43.0513 34.7273 44.6845 34.7273V32.7273C43.4087 32.7273 42.2979 32.4063 41.3223 31.7784L40.24 33.4602Z" fill="url(#paint0_linear_3389_657)" mask="url(#path-1-outside-1_3389_657)"/>
<defs>
<linearGradient id="paint0_linear_3389_657" x1="35.9437" y1="6.81818" x2="22.1211" y2="39.1385" gradientUnits="userSpaceOnUse">
<stop stop-color="#FDD012"/>
<stop offset="1" stop-color="#CC8D02"/>
</linearGradient>
</defs>
</svg>
