<svg width="60" height="37" viewBox="0 0 60 37" fill="none" xmlns="http://www.w3.org/2000/svg">
<g filter="url(#filter0_i_3356_567)">
<path d="M0.829546 36V30.6818L13.2557 19.1761C14.3125 18.1534 15.1989 17.233 15.9148 16.4148C16.642 15.5966 17.1932 14.7955 17.5682 14.0114C17.9432 13.2159 18.1307 12.358 18.1307 11.4375C18.1307 10.4148 17.8977 9.53409 17.4318 8.79545C16.9659 8.04545 16.3295 7.47159 15.5227 7.07386C14.7159 6.66477 13.8011 6.46023 12.7784 6.46023C11.7102 6.46023 10.7784 6.67614 9.98295 7.10795C9.1875 7.53977 8.57386 8.15909 8.14205 8.96591C7.71023 9.77273 7.49432 10.733 7.49432 11.8466H0.488636C0.488636 9.5625 1.00568 7.57955 2.03977 5.89773C3.07386 4.21591 4.52273 2.91477 6.38636 1.99432C8.25 1.07386 10.3977 0.613635 12.8295 0.613635C15.3295 0.613635 17.5057 1.05682 19.358 1.94318C21.2216 2.81818 22.6705 4.03409 23.7045 5.59091C24.7386 7.14773 25.2557 8.93182 25.2557 10.9432C25.2557 12.2614 24.9943 13.5625 24.4716 14.8466C23.9602 16.1307 23.0455 17.5568 21.7273 19.125C20.4091 20.6818 18.5511 22.5511 16.1534 24.733L11.0568 29.7273V29.9659H25.7159V36H0.829546ZM45.2314 36.767C42.2996 36.7557 39.7769 36.0341 37.6632 34.6023C35.561 33.1705 33.9416 31.0966 32.8053 28.3807C31.6803 25.6648 31.1235 22.3977 31.1348 18.5795C31.1348 14.7727 31.6973 11.5284 32.8223 8.84659C33.9587 6.16477 35.578 4.125 37.6803 2.72727C39.7939 1.31818 42.311 0.613635 45.2314 0.613635C48.1519 0.613635 50.6632 1.31818 52.7655 2.72727C54.8791 4.13636 56.5041 6.18182 57.6405 8.86364C58.7769 11.5341 59.3394 14.7727 59.328 18.5795C59.328 22.4091 58.7598 25.6818 57.6235 28.3977C56.4985 31.1136 54.8848 33.1875 52.7826 34.6193C50.6803 36.0511 48.1632 36.767 45.2314 36.767ZM45.2314 30.6477C47.2314 30.6477 48.828 29.642 50.0212 27.6307C51.2144 25.6193 51.8053 22.6023 51.7939 18.5795C51.7939 15.9318 51.5212 13.7273 50.9757 11.9659C50.4416 10.2045 49.6803 8.88068 48.6916 7.99432C47.7144 7.10795 46.561 6.66477 45.2314 6.66477C43.2428 6.66477 41.6519 7.65909 40.4587 9.64773C39.2655 11.6364 38.6632 14.6136 38.6519 18.5795C38.6519 21.2614 38.9189 23.5 39.453 25.2955C39.9985 27.0795 40.7655 28.4205 41.7541 29.3182C42.7428 30.2045 43.9019 30.6477 45.2314 30.6477Z" fill="url(#paint0_linear_3356_567)"/>
</g>
<defs>
<filter id="filter0_i_3356_567" x="0.488525" y="0.613647" width="58.8564" height="36.1534" filterUnits="userSpaceOnUse" color-interpolation-filters="sRGB">
<feFlood flood-opacity="0" result="BackgroundImageFix"/>
<feBlend mode="normal" in="SourceGraphic" in2="BackgroundImageFix" result="shape"/>
<feColorMatrix in="SourceAlpha" type="matrix" values="0 0 0 0 0 0 0 0 0 0 0 0 0 0 0 0 0 0 127 0" result="hardAlpha"/>
<feOffset dy="-1"/>
<feComposite in2="hardAlpha" operator="arithmetic" k2="-1" k3="1"/>
<feColorMatrix type="matrix" values="0 0 0 0 0.639216 0 0 0 0 0.388235 0 0 0 0 0.0196078 0 0 0 1 0"/>
<feBlend mode="normal" in2="shape" result="effect1_innerShadow_3356_567"/>
</filter>
<linearGradient id="paint0_linear_3356_567" x1="26.16" y1="39.2326" x2="33.5378" y2="3.13738" gradientUnits="userSpaceOnUse">
<stop stop-color="#A36305"/>
<stop offset="0.23" stop-color="#CC8D02"/>
<stop offset="0.72" stop-color="#ECB606"/>
<stop offset="1" stop-color="#FFE761"/>
</linearGradient>
</defs>
</svg>
