<svg width="91" height="37" viewBox="0 0 91 37" fill="none" xmlns="http://www.w3.org/2000/svg">
<g filter="url(#filter0_i_3356_1968)">
<path d="M12.9794 36.4773C10.5704 36.4773 8.42263 36.0341 6.53627 35.1477C4.66127 34.2614 3.17263 33.0398 2.07036 31.483C0.968084 29.9261 0.394221 28.142 0.348766 26.1307H7.50786C7.5874 27.483 8.15558 28.5795 9.2124 29.4205C10.2692 30.2614 11.5249 30.6818 12.9794 30.6818C14.1385 30.6818 15.1613 30.4261 16.0476 29.9148C16.9454 29.392 17.6442 28.6705 18.1442 27.75C18.6556 26.8182 18.9113 25.75 18.9113 24.5455C18.9113 23.3182 18.6499 22.2386 18.1272 21.3068C17.6158 20.375 16.9056 19.6477 15.9965 19.125C15.0874 18.6023 14.0476 18.3352 12.8772 18.3239C11.8544 18.3239 10.8601 18.5341 9.89422 18.9545C8.93968 19.375 8.19536 19.9489 7.66127 20.6761L1.09877 19.5L2.75218 1.09091H24.0931V7.125H8.8374L7.93399 15.8693H8.13854C8.75218 15.0057 9.67831 14.2898 10.9169 13.7216C12.1556 13.1534 13.5419 12.8693 15.076 12.8693C17.1783 12.8693 19.0533 13.3636 20.701 14.3523C22.3488 15.3409 23.6499 16.6989 24.6044 18.4261C25.559 20.142 26.0306 22.1193 26.0192 24.358C26.0306 26.7102 25.4851 28.8011 24.3829 30.6307C23.2919 32.4489 21.7635 33.8807 19.7976 34.9261C17.8431 35.9602 15.5704 36.4773 12.9794 36.4773ZM45.3344 36.767C42.4026 36.7557 39.8799 36.0341 37.7663 34.6023C35.664 33.1705 34.0447 31.0966 32.9083 28.3807C31.7833 25.6648 31.2265 22.3977 31.2379 18.5795C31.2379 14.7727 31.8004 11.5284 32.9254 8.84659C34.0617 6.16477 35.681 4.125 37.7833 2.72727C39.8969 1.31818 42.414 0.613635 45.3344 0.613635C48.2549 0.613635 50.7663 1.31818 52.8685 2.72727C54.9822 4.13636 56.6072 6.18182 57.7435 8.86364C58.8799 11.5341 59.4424 14.7727 59.431 18.5795C59.431 22.4091 58.8629 25.6818 57.7265 28.3977C56.6015 31.1136 54.9879 33.1875 52.8856 34.6193C50.7833 36.0511 48.2663 36.767 45.3344 36.767ZM45.3344 30.6477C47.3344 30.6477 48.931 29.642 50.1242 27.6307C51.3174 25.6193 51.9083 22.6023 51.8969 18.5795C51.8969 15.9318 51.6242 13.7273 51.0788 11.9659C50.5447 10.2045 49.7833 8.88068 48.7947 7.99432C47.8174 7.10795 46.664 6.66477 45.3344 6.66477C43.3458 6.66477 41.7549 7.65909 40.5617 9.64773C39.3685 11.6364 38.7663 14.6136 38.7549 18.5795C38.7549 21.2614 39.0219 23.5 39.556 25.2955C40.1015 27.0795 40.8685 28.4205 41.8572 29.3182C42.8458 30.2045 44.0049 30.6477 45.3344 30.6477ZM75.6056 30.6818V6.54545H81.7079V30.6818H75.6056ZM66.5886 21.6648V15.5625H90.725V21.6648H66.5886Z" fill="url(#paint0_linear_3356_1968)"/>
</g>
<defs>
<filter id="filter0_i_3356_1968" x="0.348633" y="0.613647" width="90.3765" height="36.1534" filterUnits="userSpaceOnUse" color-interpolation-filters="sRGB">
<feFlood flood-opacity="0" result="BackgroundImageFix"/>
<feBlend mode="normal" in="SourceGraphic" in2="BackgroundImageFix" result="shape"/>
<feColorMatrix in="SourceAlpha" type="matrix" values="0 0 0 0 0 0 0 0 0 0 0 0 0 0 0 0 0 0 127 0" result="hardAlpha"/>
<feOffset dy="-1"/>
<feComposite in2="hardAlpha" operator="arithmetic" k2="-1" k3="1"/>
<feColorMatrix type="matrix" values="0 0 0 0 0.639216 0 0 0 0 0.388235 0 0 0 0 0.0196078 0 0 0 1 0"/>
<feBlend mode="normal" in2="shape" result="effect1_innerShadow_3356_1968"/>
</filter>
<linearGradient id="paint0_linear_3356_1968" x1="40.5199" y1="39.2326" x2="45.4515" y2="2.28766" gradientUnits="userSpaceOnUse">
<stop stop-color="#A36305"/>
<stop offset="0.23" stop-color="#CC8D02"/>
<stop offset="0.72" stop-color="#ECB606"/>
<stop offset="1" stop-color="#FFE761"/>
</linearGradient>
</defs>
</svg>
