<svg width="77" height="43" viewBox="0 0 77 43" fill="none" xmlns="http://www.w3.org/2000/svg">
<g filter="url(#filter0_i_3356_879)">
<path d="M13.1796 37.4773C10.7706 37.4773 8.62283 37.0341 6.73646 36.1477C4.86146 35.2614 3.37282 34.0398 2.27055 32.483C1.16828 30.9261 0.594416 29.142 0.548961 27.1307H7.70805C7.7876 28.483 8.35578 29.5795 9.4126 30.4205C10.4694 31.2614 11.7251 31.6818 13.1796 31.6818C14.3387 31.6818 15.3615 31.4261 16.2478 30.9148C17.1456 30.392 17.8444 29.6705 18.3444 28.75C18.8558 27.8182 19.1115 26.75 19.1115 25.5455C19.1115 24.3182 18.8501 23.2386 18.3274 22.3068C17.816 21.375 17.1058 20.6477 16.1967 20.125C15.2876 19.6023 14.2478 19.3352 13.0774 19.3239C12.0546 19.3239 11.0603 19.5341 10.0944 19.9545C9.13987 20.375 8.39555 20.9489 7.86146 21.6761L1.29896 20.5L2.95237 2.09091H24.2933V8.125H9.0376L8.13419 16.8693H8.33873C8.95237 16.0057 9.87851 15.2898 11.1171 14.7216C12.3558 14.1534 13.7421 13.8693 15.2762 13.8693C17.3785 13.8693 19.2535 14.3636 20.9012 15.3523C22.549 16.3409 23.8501 17.6989 24.8046 19.4261C25.7592 21.142 26.2308 23.1193 26.2194 25.358C26.2308 27.7102 25.6853 29.8011 24.5831 31.6307C23.4921 33.4489 21.9637 34.8807 19.9978 35.9261C18.0433 36.9602 15.7706 37.4773 13.1796 37.4773ZM47.1199 0.454543L35.8699 42.25H29.6142L40.8642 0.454543H47.1199ZM63.7803 37.4773C61.3712 37.4773 59.2234 37.0341 57.3371 36.1477C55.4621 35.2614 53.9734 34.0398 52.8712 32.483C51.7689 30.9261 51.195 29.142 51.1496 27.1307H58.3087C58.3882 28.483 58.9564 29.5795 60.0132 30.4205C61.07 31.2614 62.3257 31.6818 63.7803 31.6818C64.9394 31.6818 65.9621 31.4261 66.8485 30.9148C67.7462 30.392 68.445 29.6705 68.945 28.75C69.4564 27.8182 69.7121 26.75 69.7121 25.5455C69.7121 24.3182 69.4507 23.2386 68.928 22.3068C68.4166 21.375 67.7064 20.6477 66.7973 20.125C65.8882 19.6023 64.8484 19.3352 63.678 19.3239C62.6553 19.3239 61.6609 19.5341 60.695 19.9545C59.7405 20.375 58.9962 20.9489 58.4621 21.6761L51.8996 20.5L53.553 2.09091H74.8939V8.125H59.6382L58.7348 16.8693H58.9394C59.553 16.0057 60.4791 15.2898 61.7178 14.7216C62.9564 14.1534 64.3428 13.8693 65.8769 13.8693C67.9791 13.8693 69.8541 14.3636 71.5019 15.3523C73.1496 16.3409 74.4507 17.6989 75.4053 19.4261C76.3598 21.142 76.8314 23.1193 76.82 25.358C76.8314 27.7102 76.2859 29.8011 75.1837 31.6307C74.0928 33.4489 72.5644 34.8807 70.5985 35.9261C68.6439 36.9602 66.3712 37.4773 63.7803 37.4773Z" fill="url(#paint0_linear_3356_879)"/>
</g>
<defs>
<filter id="filter0_i_3356_879" x="0.548828" y="0.45459" width="76.2881" height="41.7954" filterUnits="userSpaceOnUse" color-interpolation-filters="sRGB">
<feFlood flood-opacity="0" result="BackgroundImageFix"/>
<feBlend mode="normal" in="SourceGraphic" in2="BackgroundImageFix" result="shape"/>
<feColorMatrix in="SourceAlpha" type="matrix" values="0 0 0 0 0 0 0 0 0 0 0 0 0 0 0 0 0 0 127 0" result="hardAlpha"/>
<feOffset dy="-1"/>
<feComposite in2="hardAlpha" operator="arithmetic" k2="-1" k3="1"/>
<feColorMatrix type="matrix" values="0 0 0 0 0.639216 0 0 0 0 0.388235 0 0 0 0 0.0196078 0 0 0 1 0"/>
<feBlend mode="normal" in2="shape" result="effect1_innerShadow_3356_879"/>
</filter>
<linearGradient id="paint0_linear_3356_879" x1="33.6801" y1="40.2326" x2="39.5301" y2="3.56262" gradientUnits="userSpaceOnUse">
<stop stop-color="#A36305"/>
<stop offset="0.23" stop-color="#CC8D02"/>
<stop offset="0.72" stop-color="#ECB606"/>
<stop offset="1" stop-color="#FFE761"/>
</linearGradient>
</defs>
</svg>
