<svg width="118" height="37" viewBox="0 0 118 37" fill="none" xmlns="http://www.w3.org/2000/svg">
<g filter="url(#filter0_i_3356_2094)">
<path d="M16.2172 1.09091V36H8.83656V8.09659H8.63201L0.637695 13.108V6.5625L9.27974 1.09091H16.2172ZM38.6816 36.767C35.7498 36.7557 33.2271 36.0341 31.1134 34.6023C29.0112 33.1705 27.3918 31.0966 26.2555 28.3807C25.1305 25.6648 24.5737 22.3977 24.585 18.5795C24.585 14.7727 25.1475 11.5284 26.2725 8.84659C27.4089 6.16477 29.0282 4.125 31.1305 2.72727C33.2441 1.31818 35.7612 0.613635 38.6816 0.613635C41.6021 0.613635 44.1134 1.31818 46.2157 2.72727C48.3293 4.13636 49.9543 6.18182 51.0907 8.86364C52.2271 11.5341 52.7896 14.7727 52.7782 18.5795C52.7782 22.4091 52.21 25.6818 51.0737 28.3977C49.9487 31.1136 48.335 33.1875 46.2328 34.6193C44.1305 36.0511 41.6134 36.767 38.6816 36.767ZM38.6816 30.6477C40.6816 30.6477 42.2782 29.642 43.4714 27.6307C44.6646 25.6193 45.2555 22.6023 45.2441 18.5795C45.2441 15.9318 44.9714 13.7273 44.4259 11.9659C43.8918 10.2045 43.1305 8.88068 42.1418 7.99432C41.1646 7.10795 40.0112 6.66477 38.6816 6.66477C36.693 6.66477 35.1021 7.65909 33.9089 9.64773C32.7157 11.6364 32.1134 14.6136 32.1021 18.5795C32.1021 21.2614 32.3691 23.5 32.9032 25.2955C33.4487 27.0795 34.2157 28.4205 35.2043 29.3182C36.193 30.2045 37.3521 30.6477 38.6816 30.6477ZM72.2085 36.767C69.2767 36.7557 66.7539 36.0341 64.6403 34.6023C62.538 33.1705 60.9187 31.0966 59.7824 28.3807C58.6574 25.6648 58.1005 22.3977 58.1119 18.5795C58.1119 14.7727 58.6744 11.5284 59.7994 8.84659C60.9358 6.16477 62.5551 4.125 64.6574 2.72727C66.771 1.31818 69.288 0.613635 72.2085 0.613635C75.1289 0.613635 77.6403 1.31818 79.7426 2.72727C81.8562 4.13636 83.4812 6.18182 84.6176 8.86364C85.7539 11.5341 86.3164 14.7727 86.3051 18.5795C86.3051 22.4091 85.7369 25.6818 84.6005 28.3977C83.4755 31.1136 81.8619 33.1875 79.7596 34.6193C77.6574 36.0511 75.1403 36.767 72.2085 36.767ZM72.2085 30.6477C74.2085 30.6477 75.8051 29.642 76.9983 27.6307C78.1914 25.6193 78.7824 22.6023 78.771 18.5795C78.771 15.9318 78.4983 13.7273 77.9528 11.9659C77.4187 10.2045 76.6574 8.88068 75.6687 7.99432C74.6914 7.10795 73.538 6.66477 72.2085 6.66477C70.2199 6.66477 68.6289 7.65909 67.4358 9.64773C66.2426 11.6364 65.6403 14.6136 65.6289 18.5795C65.6289 21.2614 65.896 23.5 66.4301 25.2955C66.9755 27.0795 67.7426 28.4205 68.7312 29.3182C69.7199 30.2045 70.8789 30.6477 72.2085 30.6477ZM102.48 30.6818V6.54545H108.582V30.6818H102.48ZM93.4626 21.6648V15.5625H117.599V21.6648H93.4626Z" fill="url(#paint0_linear_3356_2094)"/>
</g>
<defs>
<filter id="filter0_i_3356_2094" x="0.637695" y="0.613647" width="116.961" height="36.1534" filterUnits="userSpaceOnUse" color-interpolation-filters="sRGB">
<feFlood flood-opacity="0" result="BackgroundImageFix"/>
<feBlend mode="normal" in="SourceGraphic" in2="BackgroundImageFix" result="shape"/>
<feColorMatrix in="SourceAlpha" type="matrix" values="0 0 0 0 0 0 0 0 0 0 0 0 0 0 0 0 0 0 127 0" result="hardAlpha"/>
<feOffset dy="-1"/>
<feComposite in2="hardAlpha" operator="arithmetic" k2="-1" k3="1"/>
<feColorMatrix type="matrix" values="0 0 0 0 0.639216 0 0 0 0 0.388235 0 0 0 0 0.0196078 0 0 0 1 0"/>
<feBlend mode="normal" in2="shape" result="effect1_innerShadow_3356_2094"/>
</filter>
<linearGradient id="paint0_linear_3356_2094" x1="52.7602" y1="39.2326" x2="56.6835" y2="2.04327" gradientUnits="userSpaceOnUse">
<stop stop-color="#A36305"/>
<stop offset="0.23" stop-color="#CC8D02"/>
<stop offset="0.72" stop-color="#ECB606"/>
<stop offset="1" stop-color="#FFE761"/>
</linearGradient>
</defs>
</svg>
