<svg width="48" height="48" viewBox="0 0 48 48" fill="none" xmlns="http://www.w3.org/2000/svg">
<path fill-rule="evenodd" clip-rule="evenodd" d="M8 5.5C7.33696 5.5 6.70107 5.76339 6.23223 6.23223C5.76339 6.70107 5.5 7.33696 5.5 8V16C5.5 16.663 5.76339 17.2989 6.23223 17.7678C6.70107 18.2366 7.33696 18.5 8 18.5H9.96637C9.98797 18.4995 10.0096 18.4995 10.0314 18.5H17.9664C17.988 18.4995 18.0096 18.4995 18.0314 18.5H26C26.1326 18.5 26.2598 18.4473 26.3536 18.3536C26.4473 18.2598 26.5 18.1326 26.5 18V6C26.5 5.86739 26.4473 5.74022 26.3536 5.64645C26.2598 5.55268 26.1326 5.5 26 5.5H8ZM29.5 6.5V6C29.5 5.07174 29.1313 4.1815 28.4749 3.52513C27.8185 2.86875 26.9283 2.5 26 2.5H8C6.54131 2.5 5.14236 3.07946 4.11091 4.11091C3.07946 5.14236 2.5 6.54131 2.5 8V16C2.5 17.4587 3.07946 18.8576 4.11091 19.8891C5.14236 20.9205 6.54131 21.5 8 21.5H8.07884L4.77334 34.722C4.30903 34.8958 3.88243 35.1678 3.52513 35.5251C2.86875 36.1815 2.5 37.0717 2.5 38C2.5 39.9891 3.29018 41.8968 4.6967 43.3033C6.10322 44.7098 8.01088 45.5 10 45.5H20C20.9283 45.5 21.8185 45.1313 22.4749 44.4749C23.1313 43.8185 23.5 42.9283 23.5 42V38C23.5 37.0717 23.1313 36.1815 22.4749 35.5251C21.8185 34.8687 20.9283 34.5 20 34.5H15.9212L17.1712 29.5H22.44C23.2207 29.4998 23.9794 29.2385 24.5945 28.7578C25.2095 28.2772 25.6463 27.6049 25.8353 26.8476C25.8352 26.8478 25.8353 26.8474 25.8353 26.8476L27.2268 21.2779C27.6911 21.1042 28.1176 20.8321 28.4749 20.4749C29.1313 19.8185 29.5 18.9283 29.5 18V17.5H34C34.9283 17.5 35.8185 17.1313 36.4749 16.4749C37.1313 15.8185 37.5 14.9283 37.5 14V13.5H44C44.8284 13.5 45.5 12.8284 45.5 12C45.5 11.1716 44.8284 10.5 44 10.5H37.5V10C37.5 9.07174 37.1313 8.18151 36.4749 7.52513C35.8185 6.86875 34.9283 6.5 34 6.5H29.5ZM29.5 9.5V14.5H34C34.1326 14.5 34.2598 14.4473 34.3536 14.3536C34.4473 14.2598 34.5 14.1326 34.5 14V10C34.5 9.86739 34.4473 9.74021 34.3536 9.64645C34.2598 9.55268 34.1326 9.5 34 9.5H29.5ZM24.0791 21.5H19.1712L17.9212 26.5H22.4396M14.5529 27.6036L16.0788 21.5H11.1712L7.92116 34.5H12.8288L14.5372 27.6666C14.542 27.6454 14.5472 27.6244 14.5529 27.6036ZM13.9686 37.5H6C5.86739 37.5 5.74021 37.5527 5.64645 37.6464C5.55268 37.7402 5.5 37.8674 5.5 38C5.5 39.1935 5.97411 40.3381 6.81802 41.182C7.66193 42.0259 8.80653 42.5 10 42.5H20C20.1326 42.5 20.2598 42.4473 20.3536 42.3536C20.4473 42.2598 20.5 42.1326 20.5 42V38C20.5 37.8674 20.4473 37.7402 20.3536 37.6464C20.2598 37.5527 20.1326 37.5 20 37.5H14.0337C14.012 37.5005 13.9903 37.5005 13.9686 37.5ZM24.0791 21.5L22.9247 26.1204C22.8977 26.2286 22.8352 26.3253 22.7473 26.394C22.6595 26.4626 22.551 26.4999 22.4396 26.5" fill="#CC8D02"/>
</svg>
