<svg width="58" height="39" viewBox="0 0 58 39" fill="none" xmlns="http://www.w3.org/2000/svg">
<mask id="path-1-outside-1_2685_4292" maskUnits="userSpaceOnUse" x="0" y="0" width="58" height="39" fill="black">
<rect fill="white" width="58" height="39"/>
<path d="M14 37.4773C11.4318 37.4773 9.24432 36.7784 7.4375 35.3807C5.63068 33.9716 4.25 31.9318 3.29545 29.2614C2.34091 26.5795 1.86364 23.3409 1.86364 19.5455C1.86364 15.7727 2.34091 12.5511 3.29545 9.88068C4.26136 7.19886 5.64773 5.15341 7.45455 3.74432C9.27273 2.32386 11.4545 1.61364 14 1.61364C16.5455 1.61364 18.7216 2.32386 20.5284 3.74432C22.3466 5.15341 23.733 7.19886 24.6875 9.88068C25.6534 12.5511 26.1364 15.7727 26.1364 19.5455C26.1364 23.3409 25.6591 26.5795 24.7045 29.2614C23.75 31.9318 22.3693 33.9716 20.5625 35.3807C18.7557 36.7784 16.5682 37.4773 14 37.4773ZM14 33.7273C16.5455 33.7273 18.5227 32.5 19.9318 30.0455C21.3409 27.5909 22.0455 24.0909 22.0455 19.5455C22.0455 16.5227 21.7216 13.9489 21.0739 11.8239C20.4375 9.69886 19.517 8.07954 18.3125 6.96591C17.1193 5.85227 15.6818 5.29545 14 5.29545C11.4773 5.29545 9.50568 6.53977 8.08523 9.02841C6.66477 11.5057 5.95455 15.0114 5.95455 19.5455C5.95455 22.5682 6.27273 25.1364 6.90909 27.25C7.54545 29.3636 8.46023 30.9716 9.65341 32.0739C10.858 33.1761 12.3068 33.7273 14 33.7273ZM44.2755 37.4773C41.9345 37.4773 39.8664 37.0625 38.0709 36.233C36.2868 35.392 34.8948 34.2386 33.8948 32.7727C32.8948 31.2955 32.4005 29.6136 32.4118 27.7273C32.4005 26.25 32.6902 24.8864 33.2811 23.6364C33.872 22.375 34.6789 21.3239 35.7016 20.483C36.7357 19.6307 37.8891 19.0909 39.1618 18.8636V18.6591C37.4914 18.2273 36.1618 17.2898 35.1732 15.8466C34.1845 14.392 33.6959 12.7386 33.7073 10.8864C33.6959 9.11364 34.1448 7.52841 35.0539 6.13068C35.963 4.73295 37.213 3.63068 38.8039 2.82386C40.4061 2.01704 42.23 1.61364 44.2755 1.61364C46.2982 1.61364 48.105 2.01704 49.6959 2.82386C51.2868 3.63068 52.5368 4.73295 53.4459 6.13068C54.3664 7.52841 54.8323 9.11364 54.8436 10.8864C54.8323 12.7386 54.3266 14.392 53.3266 15.8466C52.338 17.2898 51.0255 18.2273 49.3891 18.6591V18.8636C50.6505 19.0909 51.7868 19.6307 52.7982 20.483C53.8095 21.3239 54.6164 22.375 55.2186 23.6364C55.8209 24.8864 56.1277 26.25 56.1391 27.7273C56.1277 29.6136 55.6164 31.2955 54.605 32.7727C53.605 34.2386 52.213 35.392 50.4289 36.233C48.6561 37.0625 46.605 37.4773 44.2755 37.4773ZM44.2755 33.7273C45.855 33.7273 47.2186 33.4716 48.3664 32.9602C49.5141 32.4489 50.4005 31.7273 51.0255 30.7955C51.6505 29.8636 51.9686 28.7727 51.98 27.5227C51.9686 26.2045 51.6277 25.0398 50.9573 24.0284C50.2868 23.017 49.372 22.2216 48.213 21.642C47.0652 21.0625 45.7527 20.7727 44.2755 20.7727C42.7868 20.7727 41.4573 21.0625 40.2868 21.642C39.1277 22.2216 38.213 23.017 37.5425 24.0284C36.8834 25.0398 36.5595 26.2045 36.5709 27.5227C36.5595 28.7727 36.8607 29.8636 37.4743 30.7955C38.0993 31.7273 38.9914 32.4489 40.1505 32.9602C41.3095 33.4716 42.6845 33.7273 44.2755 33.7273ZM44.2755 17.1591C45.5255 17.1591 46.6334 16.9091 47.5993 16.4091C48.5766 15.9091 49.3436 15.2102 49.9005 14.3125C50.4573 13.4148 50.7414 12.3636 50.7527 11.1591C50.7414 9.97727 50.463 8.94886 49.9175 8.07386C49.372 7.1875 48.6164 6.50568 47.6505 6.02841C46.6845 5.53977 45.5595 5.29545 44.2755 5.29545C42.9686 5.29545 41.8266 5.53977 40.8493 6.02841C39.872 6.50568 39.1164 7.1875 38.5823 8.07386C38.0482 8.94886 37.7868 9.97727 37.7982 11.1591C37.7868 12.3636 38.0539 13.4148 38.5993 14.3125C39.1561 15.2102 39.9232 15.9091 40.9005 16.4091C41.8777 16.9091 43.0027 17.1591 44.2755 17.1591Z"/>
</mask>
<path d="M7.4375 35.3807L6.82253 36.1692L6.82563 36.1716L7.4375 35.3807ZM3.29545 29.2614L2.35335 29.5967L2.3538 29.598L3.29545 29.2614ZM3.29545 9.88068L2.35462 9.54182L2.3538 9.54409L3.29545 9.88068ZM7.45455 3.74432L8.06952 4.53287L8.07019 4.53234L7.45455 3.74432ZM20.5284 3.74432L19.9104 4.53048L19.9158 4.53473L20.5284 3.74432ZM24.6875 9.88068L23.7454 10.216L23.7471 10.2208L24.6875 9.88068ZM24.7045 29.2614L25.6462 29.598L25.6466 29.5967L24.7045 29.2614ZM20.5625 35.3807L21.1744 36.1716L21.1775 36.1692L20.5625 35.3807ZM19.9318 30.0455L19.0646 29.5476L19.9318 30.0455ZM21.0739 11.8239L20.1159 12.1107L20.1173 12.1154L21.0739 11.8239ZM18.3125 6.96591L17.6302 7.69697L17.6336 7.70018L18.3125 6.96591ZM8.08523 9.02841L8.95274 9.52583L8.95371 9.52412L8.08523 9.02841ZM6.90909 27.25L5.95155 27.5383L6.90909 27.25ZM9.65341 32.0739L8.97483 32.8084L8.97832 32.8116L9.65341 32.0739ZM14 36.4773C11.6243 36.4773 9.6594 35.8352 8.04937 34.5897L6.82563 36.1716C8.82924 37.7216 11.2393 38.4773 14 38.4773V36.4773ZM8.05247 34.5921C6.42716 33.3246 5.14299 31.4591 4.23711 28.9248L2.3538 29.598C3.35701 32.4045 4.83421 34.6186 6.82253 36.1692L8.05247 34.5921ZM4.23756 28.926C3.33172 26.3811 2.86364 23.2624 2.86364 19.5455H0.863636C0.863636 23.4194 1.3501 26.778 2.35335 29.5967L4.23756 28.926ZM2.86364 19.5455C2.86364 15.8518 3.33157 12.7506 4.23711 10.2173L2.3538 9.54409C1.35025 12.3517 0.863636 15.6936 0.863636 19.5455H2.86364ZM4.23629 10.2195C5.15379 7.67213 6.44411 5.80048 8.06952 4.53287L6.83958 2.95577C4.85134 4.50634 3.36894 6.7256 2.35462 9.54182L4.23629 10.2195ZM8.07019 4.53234C9.69423 3.26356 11.6532 2.61364 14 2.61364V0.613635C11.2558 0.613635 8.85122 1.38417 6.8389 2.95629L8.07019 4.53234ZM14 2.61364C16.3468 2.61364 18.2989 3.26355 19.9104 4.53046L21.1465 2.95817C19.1443 1.38418 16.7441 0.613635 14 0.613635V2.61364ZM19.9158 4.53473C21.5506 5.80171 22.8397 7.67145 23.7454 10.216L25.6296 9.54536C24.6262 6.72627 23.1425 4.50511 21.141 2.9539L19.9158 4.53473ZM23.7471 10.2208C24.663 12.753 25.1364 15.8529 25.1364 19.5455H27.1364C27.1364 15.6926 26.6438 12.3493 25.6279 9.54054L23.7471 10.2208ZM25.1364 19.5455C25.1364 23.2624 24.6683 26.3811 23.7624 28.926L25.6466 29.5967C26.6499 26.778 27.1364 23.4194 27.1364 19.5455H25.1364ZM23.7629 28.9248C22.857 31.4591 21.5728 33.3246 19.9475 34.5921L21.1775 36.1692C23.1658 34.6186 24.643 32.4045 25.6462 29.598L23.7629 28.9248ZM19.9506 34.5897C18.3406 35.8352 16.3757 36.4773 14 36.4773V38.4773C16.7607 38.4773 19.1708 37.7216 21.1744 36.1716L19.9506 34.5897ZM14 34.7273C16.9496 34.7273 19.2358 33.2664 20.7991 30.5433L19.0646 29.5476C17.8096 31.7336 16.1413 32.7273 14 32.7273V34.7273ZM20.7991 30.5433C22.3327 27.8718 23.0455 24.1703 23.0455 19.5455H21.0455C21.0455 24.0115 20.3491 27.31 19.0646 29.5476L20.7991 30.5433ZM23.0455 19.5455C23.0455 16.457 22.7152 13.7789 22.0304 11.5323L20.1173 12.1154C20.728 14.1188 21.0455 16.5885 21.0455 19.5455H23.0455ZM22.0318 11.537C21.3616 9.29877 20.3657 7.50224 18.9914 6.23164L17.6336 7.70018C18.6684 8.65684 19.5134 10.099 20.1159 12.1107L22.0318 11.537ZM18.9948 6.23485C17.6103 4.94266 15.9266 4.29545 14 4.29545V6.29545C15.4371 6.29545 16.6283 6.76189 17.6302 7.69696L18.9948 6.23485ZM14 4.29545C11.0631 4.29545 8.78606 5.78324 7.21674 8.5327L8.95371 9.52412C10.2253 7.2963 11.8914 6.29545 14 6.29545V4.29545ZM7.21772 8.53098C5.67371 11.2237 4.95455 14.9296 4.95455 19.5455H6.95455C6.95455 15.0931 7.65584 11.7876 8.95273 9.52583L7.21772 8.53098ZM4.95455 19.5455C4.95455 22.6325 5.27881 25.3038 5.95155 27.5383L7.86663 26.9617C7.26665 24.9689 6.95455 22.5039 6.95455 19.5455H4.95455ZM5.95155 27.5383C6.62162 29.7639 7.6116 31.549 8.97484 32.8084L10.332 31.3393C9.30885 30.3941 8.46929 28.9634 7.86663 26.9617L5.95155 27.5383ZM8.97832 32.8116C10.3746 34.0893 12.0671 34.7273 14 34.7273V32.7273C12.5465 32.7273 11.3413 32.2629 10.3285 31.3361L8.97832 32.8116ZM38.0709 36.233L37.6445 37.1375L37.6515 37.1407L38.0709 36.233ZM33.8948 32.7727L33.0667 33.3333L33.0687 33.3363L33.8948 32.7727ZM32.4118 27.7273L33.4119 27.7333L33.4118 27.7196L32.4118 27.7273ZM33.2811 23.6364L34.1852 24.0637L34.1867 24.0606L33.2811 23.6364ZM35.7016 20.483L36.3367 21.2554L36.3376 21.2546L35.7016 20.483ZM39.1618 18.8636L39.3376 19.8481L40.1618 19.7009V18.8636H39.1618ZM39.1618 18.6591H40.1618V17.8847L39.4121 17.6909L39.1618 18.6591ZM35.1732 15.8466L34.3461 16.4087L34.3482 16.4117L35.1732 15.8466ZM33.7073 10.8864L34.7073 10.8925L34.7073 10.88L33.7073 10.8864ZM35.0539 6.13068L35.8922 6.67591L35.0539 6.13068ZM38.8039 2.82386L38.3541 1.9307L38.3516 1.932L38.8039 2.82386ZM53.4459 6.13068L52.6076 6.67592L52.6107 6.68067L53.4459 6.13068ZM54.8436 10.8864L55.8437 10.8925L55.8436 10.88L54.8436 10.8864ZM53.3266 15.8466L52.5025 15.2801L52.5016 15.2814L53.3266 15.8466ZM49.3891 18.6591L49.1339 17.6922L48.3891 17.8887V18.6591H49.3891ZM49.3891 18.8636H48.3891V19.6996L49.2118 19.8478L49.3891 18.8636ZM52.7982 20.483L52.1538 21.2477L52.1588 21.2519L52.7982 20.483ZM55.2186 23.6364L54.3162 24.0672L54.3178 24.0704L55.2186 23.6364ZM56.1391 27.7273L57.1392 27.7333L57.1391 27.7196L56.1391 27.7273ZM54.605 32.7727L53.7798 32.2078L53.7789 32.2092L54.605 32.7727ZM50.4289 36.233L50.8527 37.1387L50.8552 37.1375L50.4289 36.233ZM48.3664 32.9602L47.9594 32.0468L48.3664 32.9602ZM51.0255 30.7955L50.195 30.2384L51.0255 30.7955ZM51.98 27.5227L52.98 27.5318L52.98 27.523L52.98 27.5141L51.98 27.5227ZM50.9573 24.0284L50.1238 24.5809L50.9573 24.0284ZM48.213 21.642L47.7622 22.5347L47.7657 22.5365L48.213 21.642ZM40.2868 21.642L39.8431 20.7459L39.8396 20.7476L40.2868 21.642ZM37.5425 24.0284L36.709 23.4759L36.7047 23.4824L37.5425 24.0284ZM36.5709 27.5227L37.5709 27.5318L37.5709 27.523L37.5709 27.5141L36.5709 27.5227ZM37.4743 30.7955L36.6391 31.3455L36.6438 31.3525L37.4743 30.7955ZM40.1505 32.9602L40.5541 32.0453L40.1505 32.9602ZM47.5993 16.4091L47.1438 15.5188L47.1396 15.521L47.5993 16.4091ZM49.9005 14.3125L50.7503 14.8396V14.8396L49.9005 14.3125ZM50.7527 11.1591L51.7527 11.1685L51.7528 11.159L51.7527 11.1495L50.7527 11.1591ZM49.9175 8.07386L49.0658 8.59797L49.0689 8.60287L49.9175 8.07386ZM47.6505 6.02841L47.199 6.92077L47.2075 6.92494L47.6505 6.02841ZM40.8493 6.02841L41.2882 6.92702L41.2965 6.92284L40.8493 6.02841ZM38.5823 8.07386L39.4358 8.59487L39.4388 8.58997L38.5823 8.07386ZM37.7982 11.1591L38.7981 11.1685L38.7982 11.159L38.7981 11.1495L37.7982 11.1591ZM38.5993 14.3125L37.7447 14.8318L37.7495 14.8396L38.5993 14.3125ZM44.2755 36.4773C42.0531 36.4773 40.1324 36.0838 38.4903 35.3252L37.6515 37.1407C39.6004 38.0412 41.816 38.4773 44.2755 38.4773V36.4773ZM38.4973 35.3284C36.856 34.5548 35.6095 33.5119 34.7209 32.2092L33.0687 33.3363C34.18 34.9654 35.7176 36.2293 37.6446 37.1375L38.4973 35.3284ZM34.7229 32.2122C33.8427 30.9119 33.4016 29.43 33.4118 27.7333L31.4118 27.7212C31.3993 29.7972 31.9468 31.679 33.0667 33.3333L34.7229 32.2122ZM33.4118 27.7196C33.4015 26.3822 33.6629 25.1686 34.1852 24.0637L32.3771 23.209C31.7175 24.6041 31.3994 26.1178 31.4118 27.735L33.4118 27.7196ZM34.1867 24.0606C34.7178 22.9268 35.4349 21.9969 36.3367 21.2554L35.0665 19.7105C33.9229 20.6508 33.0262 21.8232 32.3756 23.2121L34.1867 24.0606ZM36.3376 21.2546C37.2441 20.5075 38.2403 20.044 39.3376 19.8481L38.986 17.8792C37.5379 18.1378 36.2272 18.7539 35.0656 19.7113L36.3376 21.2546ZM40.1618 18.8636V18.6591H38.1618V18.8636H40.1618ZM39.4121 17.6909C37.9792 17.3205 36.8523 16.5283 35.9982 15.2814L34.3482 16.4117C35.4713 18.0512 37.0036 19.134 38.9115 19.6273L39.4121 17.6909ZM36.0002 15.2845C35.1317 14.0066 34.6971 12.5536 34.7073 10.8925L32.7073 10.8802C32.6948 12.9237 33.2374 14.7775 34.3461 16.4087L36.0002 15.2845ZM34.7073 10.88C34.6971 9.28997 35.0967 7.89898 35.8922 6.67591L34.2156 5.58545C33.1929 7.15784 32.6948 8.9373 32.7073 10.8928L34.7073 10.88ZM35.8922 6.67591C36.6986 5.43598 37.8108 4.44872 39.2562 3.71573L38.3516 1.932C36.6151 2.81264 35.2273 4.02993 34.2156 5.58545L35.8922 6.67591ZM39.2536 3.71702C40.6979 2.98973 42.3642 2.61364 44.2755 2.61364V0.613635C42.0958 0.613635 40.1143 1.04436 38.3541 1.93071L39.2536 3.71702ZM44.2755 2.61364C46.1622 2.61364 47.8106 2.98901 49.2436 3.71573L50.1482 1.932C48.3994 1.04508 46.4341 0.613635 44.2755 0.613635V2.61364ZM49.2436 3.71573C50.6889 4.44872 51.8012 5.43598 52.6076 6.67591L54.2842 5.58545C53.2725 4.02993 51.8847 2.81264 50.1482 1.932L49.2436 3.71573ZM52.6107 6.68067C53.4184 7.90719 53.8335 9.30134 53.8437 10.8928L55.8436 10.88C55.8311 8.92593 55.3143 7.14963 54.2811 5.58069L52.6107 6.68067ZM53.8437 10.8802C53.8335 12.5428 53.3834 13.9989 52.5025 15.2801L54.1506 16.4131C55.2698 14.7852 55.8311 12.9345 55.8436 10.8925L53.8437 10.8802ZM52.5016 15.2814C51.6436 16.534 50.5299 17.3238 49.1339 17.6922L49.6442 19.626C51.521 19.1307 53.0323 18.0456 54.1516 16.4117L52.5016 15.2814ZM48.3891 18.6591V18.8636H50.3891V18.6591H48.3891ZM49.2118 19.8478C50.2953 20.043 51.2718 20.5044 52.1538 21.2476L53.4426 19.7183C52.3019 18.757 51.0056 18.1388 49.5664 17.8795L49.2118 19.8478ZM52.1588 21.2519C53.0522 21.9947 53.7722 22.9279 54.3162 24.0672L56.121 23.2055C55.4605 21.8221 54.5668 20.653 53.4375 19.714L52.1588 21.2519ZM54.3178 24.0704C54.8518 25.1788 55.1288 26.3956 55.1391 27.735L57.1391 27.7196C57.1266 26.1044 56.79 24.5939 56.1195 23.2023L54.3178 24.0704ZM55.1391 27.7212C55.1289 29.4193 54.6722 30.9043 53.7799 32.2078L55.4301 33.3376C56.5605 31.6866 57.1266 29.8079 57.1391 27.7333L55.1391 27.7212ZM53.7789 32.2092C52.8903 33.5119 51.6438 34.5548 50.0025 35.3284L50.8552 37.1375C52.7821 36.2293 54.3197 34.9654 55.4311 33.3363L53.7789 32.2092ZM50.005 35.3272C48.3878 36.084 46.486 36.4773 44.2755 36.4773V38.4773C46.724 38.4773 48.9244 38.041 50.8527 37.1387L50.005 35.3272ZM44.2755 34.7273C45.9603 34.7273 47.4691 34.4548 48.7733 33.8737L47.9594 32.0468C46.9682 32.4884 45.7497 32.7273 44.2755 32.7273V34.7273ZM48.7733 33.8737C50.0717 33.2952 51.1139 32.4588 51.8559 31.3525L50.195 30.2384C49.687 30.9957 48.9564 31.6026 47.9594 32.0468L48.7733 33.8737ZM51.8559 31.3525C52.6019 30.2403 52.967 28.954 52.98 27.5318L50.98 27.5136C50.9702 28.5914 50.699 29.487 50.195 30.2384L51.8559 31.3525ZM52.98 27.5141C52.9671 26.0198 52.5774 24.6625 51.7908 23.4759L50.1238 24.5809C50.678 25.417 50.9702 26.3893 50.98 27.5313L52.98 27.5141ZM51.7908 23.4759C51.0171 22.3088 49.9647 21.3999 48.6602 20.7476L47.7657 22.5365C48.7794 23.0433 49.5566 23.7253 50.1238 24.5809L51.7908 23.4759ZM48.6637 20.7494C47.3567 20.0894 45.8859 19.7727 44.2755 19.7727V21.7727C45.6196 21.7727 46.7738 22.0356 47.7622 22.5347L48.6637 20.7494ZM44.2755 19.7727C42.6545 19.7727 41.1696 20.0891 39.8431 20.7459L40.7305 22.5382C41.7449 22.0359 42.9191 21.7727 44.2755 21.7727V19.7727ZM39.8396 20.7476C38.5351 21.3999 37.4827 22.3088 36.709 23.4759L38.376 24.5809C38.9432 23.7253 39.7204 23.0433 40.734 22.5365L39.8396 20.7476ZM36.7047 23.4824C35.9283 24.6738 35.558 26.0353 35.5709 27.5313L37.5709 27.5141C37.561 26.3738 37.8385 25.4057 38.3803 24.5744L36.7047 23.4824ZM35.5709 27.5136C35.558 28.9374 35.9034 30.2282 36.6391 31.3454L38.3095 30.2455C37.818 29.4991 37.5611 28.608 37.5709 27.5318L35.5709 27.5136ZM36.6438 31.3525C37.3875 32.4613 38.4374 33.2975 39.7468 33.8751L40.5541 32.0453C39.5453 31.6003 38.8111 30.9933 38.3048 30.2384L36.6438 31.3525ZM39.7468 33.8751C41.0612 34.455 42.58 34.7273 44.2755 34.7273V32.7273C42.7891 32.7273 41.5579 32.4882 40.5541 32.0453L39.7468 33.8751ZM44.2755 18.1591C45.6614 18.1591 46.9312 17.881 48.059 17.2972L47.1396 15.521C46.3357 15.9372 45.3895 16.1591 44.2755 16.1591V18.1591ZM48.0548 17.2993C49.1875 16.7198 50.0936 15.8982 50.7503 14.8396L49.0506 13.7854C48.5936 14.5222 47.9657 15.0983 47.1438 15.5188L48.0548 17.2993ZM50.7503 14.8396C51.4165 13.7654 51.7398 12.5299 51.7527 11.1685L49.7528 11.1497C49.7429 12.1974 49.498 13.0641 49.0506 13.7854L50.7503 14.8396ZM51.7527 11.1495C51.7398 9.81132 51.4223 8.59752 50.7661 7.54485L49.0689 8.60287C49.5036 9.3002 49.7429 10.1432 49.7528 11.1687L51.7527 11.1495ZM50.7692 7.54976C50.1216 6.49749 49.2216 5.68934 48.0934 5.13188L47.2075 6.92494C48.0111 7.32202 48.6225 7.87751 49.0658 8.59796L50.7692 7.54976ZM48.1019 5.13609C46.9722 4.56462 45.6873 4.29545 44.2755 4.29545V6.29545C45.4318 6.29545 46.3969 6.51492 47.199 6.92073L48.1019 5.13609ZM44.2755 4.29545C42.8435 4.29545 41.5429 4.56359 40.4021 5.13398L41.2965 6.92284C42.1103 6.51596 43.0937 6.29545 44.2755 6.29545V4.29545ZM40.4105 5.12984C39.2693 5.68715 38.3645 6.49769 37.7257 7.55775L39.4388 8.58997C39.8682 7.87731 40.4748 7.32421 41.2882 6.92698L40.4105 5.12984ZM37.7287 7.55286C37.083 8.61077 36.7853 9.82899 36.7982 11.1687L38.7981 11.1495C38.7883 10.1255 39.0134 9.28696 39.4358 8.59486L37.7287 7.55286ZM36.7982 11.1497C36.7854 12.5126 37.0889 13.7525 37.7447 14.8318L39.4539 13.7932C39.0188 13.0771 38.7883 12.2147 38.7981 11.1685L36.7982 11.1497ZM37.7495 14.8396C38.4061 15.8982 39.3123 16.7198 40.445 17.2993L41.3559 15.5188C40.5341 15.0983 39.9061 14.5222 39.4491 13.7854L37.7495 14.8396ZM40.445 17.2993C41.5842 17.8822 42.8696 18.1591 44.2755 18.1591V16.1591C43.1358 16.1591 42.1713 15.936 41.3559 15.5188L40.445 17.2993Z" fill="url(#paint0_linear_2685_4292)" mask="url(#path-1-outside-1_2685_4292)"/>
<defs>
<linearGradient id="paint0_linear_2685_4292" x1="35.9437" y1="6.81818" x2="22.1211" y2="39.1385" gradientUnits="userSpaceOnUse">
<stop stop-color="#FDD012"/>
<stop offset="1" stop-color="#CC8D02"/>
</linearGradient>
</defs>
</svg>
