<svg width="48" height="48" viewBox="0 0 48 48" fill="none" xmlns="http://www.w3.org/2000/svg">
<path fill-rule="evenodd" clip-rule="evenodd" d="M6.93934 4.93934C7.52513 4.35355 8.47487 4.35355 9.06066 4.93934L13.0607 8.93934C13.342 9.22064 13.5 9.60218 13.5 10V14.5H18.5V10C18.5 9.60218 18.658 9.22064 18.9393 8.93934L22.9393 4.93934C23.5251 4.35355 24.4749 4.35355 25.0607 4.93934L29.0607 8.93934C29.342 9.22064 29.5 9.60218 29.5 10V14.5H34.5V10C34.5 9.60218 34.658 9.22064 34.9393 8.93934L38.9393 4.93934C39.5251 4.35355 40.4749 4.35355 41.0607 4.93934L45.0607 8.93934C45.342 9.22064 45.5 9.60218 45.5 10V40C45.5 40.9409 45.1798 41.8415 44.5107 42.5107C43.8415 43.1798 42.9409 43.5 42 43.5H38C37.0591 43.5 36.1585 43.1798 35.4893 42.5107C34.8202 41.8415 34.5 40.9409 34.5 40V37.5H29.5V40C29.5 40.9409 29.1798 41.8415 28.5107 42.5107C27.8415 43.1798 26.9409 43.5 26 43.5H22C21.0591 43.5 20.1585 43.1798 19.4893 42.5107C18.8202 41.8415 18.5 40.9409 18.5 40V37.5H13.5V40C13.5 40.9409 13.1798 41.8415 12.5107 42.5107C11.8415 43.1798 10.9409 43.5 10 43.5H6C5.05913 43.5 4.15851 43.1798 3.48934 42.5107C2.82017 41.8415 2.5 40.9409 2.5 40V10C2.5 9.60218 2.65804 9.22064 2.93934 8.93934L6.93934 4.93934ZM13.5 34.5H18.5V17.5H13.5V34.5ZM10.5 40C10.5 40.2591 10.4202 40.3585 10.3893 40.3893C10.3585 40.4202 10.2591 40.5 10 40.5H6C5.74087 40.5 5.64149 40.4202 5.61066 40.3893C5.57983 40.3585 5.5 40.2591 5.5 40V10.6213L8 8.12132L10.5 10.6213V40ZM21.5 40C21.5 40.2591 21.5798 40.3585 21.6107 40.3893C21.6415 40.4202 21.7409 40.5 22 40.5H26C26.2591 40.5 26.3585 40.4202 26.3893 40.3893C26.4202 40.3585 26.5 40.2591 26.5 40V10.6213L24 8.12132L21.5 10.6213V40ZM29.5 17.5V34.5H34.5V17.5H29.5ZM37.5 40C37.5 40.2591 37.5798 40.3585 37.6107 40.3893C37.6415 40.4202 37.7409 40.5 38 40.5H42C42.2591 40.5 42.3585 40.4202 42.3893 40.3893C42.4202 40.3585 42.5 40.2591 42.5 40V10.6213L40 8.12132L37.5 10.6213V40Z" fill="#CC8D02"/>
</svg>
