<svg width="57" height="39" viewBox="0 0 57 39" fill="none" xmlns="http://www.w3.org/2000/svg">
<mask id="path-1-outside-1_2685_4277" maskUnits="userSpaceOnUse" x="0" y="0" width="57" height="39" fill="black">
<rect fill="white" width="57" height="39"/>
<path d="M14 37.4773C11.4318 37.4773 9.24432 36.7784 7.4375 35.3807C5.63068 33.9716 4.25 31.9318 3.29545 29.2614C2.34091 26.5795 1.86364 23.3409 1.86364 19.5455C1.86364 15.7727 2.34091 12.5511 3.29545 9.88068C4.26136 7.19886 5.64773 5.15341 7.45455 3.74432C9.27273 2.32386 11.4545 1.61364 14 1.61364C16.5455 1.61364 18.7216 2.32386 20.5284 3.74432C22.3466 5.15341 23.733 7.19886 24.6875 9.88068C25.6534 12.5511 26.1364 15.7727 26.1364 19.5455C26.1364 23.3409 25.6591 26.5795 24.7045 29.2614C23.75 31.9318 22.3693 33.9716 20.5625 35.3807C18.7557 36.7784 16.5682 37.4773 14 37.4773ZM14 33.7273C16.5455 33.7273 18.5227 32.5 19.9318 30.0455C21.3409 27.5909 22.0455 24.0909 22.0455 19.5455C22.0455 16.5227 21.7216 13.9489 21.0739 11.8239C20.4375 9.69886 19.517 8.07954 18.3125 6.96591C17.1193 5.85227 15.6818 5.29545 14 5.29545C11.4773 5.29545 9.50568 6.53977 8.08523 9.02841C6.66477 11.5057 5.95455 15.0114 5.95455 19.5455C5.95455 22.5682 6.27273 25.1364 6.90909 27.25C7.54545 29.3636 8.46023 30.9716 9.65341 32.0739C10.858 33.1761 12.3068 33.7273 14 33.7273ZM44.0027 37.4773C42.0027 37.4773 40.2016 37.0795 38.5993 36.2841C36.997 35.4886 35.713 34.3977 34.747 33.0114C33.7811 31.625 33.2527 30.0455 33.1618 28.2727H37.2527C37.4118 29.8523 38.1277 31.1591 39.4005 32.1932C40.6845 33.2159 42.2186 33.7273 44.0027 33.7273C45.4345 33.7273 46.7073 33.392 47.8209 32.7216C48.9459 32.0511 49.8266 31.1307 50.463 29.9602C51.1107 28.7784 51.4345 27.4432 51.4345 25.9545C51.4345 24.4318 51.0993 23.0739 50.4289 21.8807C49.7698 20.6761 48.8607 19.7273 47.7016 19.0341C46.5425 18.3409 45.2186 17.9886 43.73 17.9773C42.6618 17.9659 41.5652 18.1307 40.4402 18.4716C39.3152 18.8011 38.3891 19.2273 37.6618 19.75L33.7073 19.2727L35.8209 2.09091H53.9573V5.84091H39.3664L38.1391 16.1364H38.3436C39.0595 15.5682 39.9573 15.0966 41.0368 14.7216C42.1164 14.3466 43.2414 14.1591 44.4118 14.1591C46.5482 14.1591 48.4516 14.6705 50.122 15.6932C51.8039 16.7045 53.122 18.0909 54.0766 19.8523C55.0425 21.6136 55.5255 23.625 55.5255 25.8864C55.5255 28.1136 55.0255 30.1023 54.0255 31.8523C53.0368 33.5909 51.6732 34.9659 49.9345 35.9773C48.1959 36.9773 46.2186 37.4773 44.0027 37.4773Z"/>
</mask>
<path d="M7.4375 35.3807L6.82253 36.1692L6.82563 36.1716L7.4375 35.3807ZM3.29545 29.2614L2.35335 29.5967L2.3538 29.598L3.29545 29.2614ZM3.29545 9.88068L2.35462 9.54182L2.3538 9.54409L3.29545 9.88068ZM7.45455 3.74432L8.06952 4.53287L8.07019 4.53234L7.45455 3.74432ZM20.5284 3.74432L19.9104 4.53048L19.9158 4.53473L20.5284 3.74432ZM24.6875 9.88068L23.7454 10.216L23.7471 10.2208L24.6875 9.88068ZM24.7045 29.2614L25.6462 29.598L25.6466 29.5967L24.7045 29.2614ZM20.5625 35.3807L21.1744 36.1716L21.1775 36.1692L20.5625 35.3807ZM19.9318 30.0455L19.0646 29.5476L19.9318 30.0455ZM21.0739 11.8239L20.1159 12.1107L20.1173 12.1154L21.0739 11.8239ZM18.3125 6.96591L17.6302 7.69697L17.6336 7.70018L18.3125 6.96591ZM8.08523 9.02841L8.95274 9.52583L8.95371 9.52412L8.08523 9.02841ZM6.90909 27.25L5.95155 27.5383L6.90909 27.25ZM9.65341 32.0739L8.97483 32.8084L8.97832 32.8116L9.65341 32.0739ZM14 36.4773C11.6243 36.4773 9.6594 35.8352 8.04937 34.5897L6.82563 36.1716C8.82924 37.7216 11.2393 38.4773 14 38.4773V36.4773ZM8.05247 34.5921C6.42716 33.3246 5.14299 31.4591 4.23711 28.9248L2.3538 29.598C3.35701 32.4045 4.83421 34.6186 6.82253 36.1692L8.05247 34.5921ZM4.23756 28.926C3.33172 26.3811 2.86364 23.2624 2.86364 19.5455H0.863636C0.863636 23.4194 1.3501 26.778 2.35335 29.5967L4.23756 28.926ZM2.86364 19.5455C2.86364 15.8518 3.33157 12.7506 4.23711 10.2173L2.3538 9.54409C1.35025 12.3517 0.863636 15.6936 0.863636 19.5455H2.86364ZM4.23629 10.2195C5.15379 7.67213 6.44411 5.80048 8.06952 4.53287L6.83958 2.95577C4.85134 4.50634 3.36894 6.7256 2.35462 9.54182L4.23629 10.2195ZM8.07019 4.53234C9.69423 3.26356 11.6532 2.61364 14 2.61364V0.613635C11.2558 0.613635 8.85122 1.38417 6.8389 2.95629L8.07019 4.53234ZM14 2.61364C16.3468 2.61364 18.2989 3.26355 19.9104 4.53046L21.1465 2.95817C19.1443 1.38418 16.7441 0.613635 14 0.613635V2.61364ZM19.9158 4.53473C21.5506 5.80171 22.8397 7.67145 23.7454 10.216L25.6296 9.54536C24.6262 6.72627 23.1425 4.50511 21.141 2.9539L19.9158 4.53473ZM23.7471 10.2208C24.663 12.753 25.1364 15.8529 25.1364 19.5455H27.1364C27.1364 15.6926 26.6438 12.3493 25.6279 9.54054L23.7471 10.2208ZM25.1364 19.5455C25.1364 23.2624 24.6683 26.3811 23.7624 28.926L25.6466 29.5967C26.6499 26.778 27.1364 23.4194 27.1364 19.5455H25.1364ZM23.7629 28.9248C22.857 31.4591 21.5728 33.3246 19.9475 34.5921L21.1775 36.1692C23.1658 34.6186 24.643 32.4045 25.6462 29.598L23.7629 28.9248ZM19.9506 34.5897C18.3406 35.8352 16.3757 36.4773 14 36.4773V38.4773C16.7607 38.4773 19.1708 37.7216 21.1744 36.1716L19.9506 34.5897ZM14 34.7273C16.9496 34.7273 19.2358 33.2664 20.7991 30.5433L19.0646 29.5476C17.8096 31.7336 16.1413 32.7273 14 32.7273V34.7273ZM20.7991 30.5433C22.3327 27.8718 23.0455 24.1703 23.0455 19.5455H21.0455C21.0455 24.0115 20.3491 27.31 19.0646 29.5476L20.7991 30.5433ZM23.0455 19.5455C23.0455 16.457 22.7152 13.7789 22.0304 11.5323L20.1173 12.1154C20.728 14.1188 21.0455 16.5885 21.0455 19.5455H23.0455ZM22.0318 11.537C21.3616 9.29877 20.3657 7.50224 18.9914 6.23164L17.6336 7.70018C18.6684 8.65684 19.5134 10.099 20.1159 12.1107L22.0318 11.537ZM18.9948 6.23485C17.6103 4.94266 15.9266 4.29545 14 4.29545V6.29545C15.4371 6.29545 16.6283 6.76189 17.6302 7.69696L18.9948 6.23485ZM14 4.29545C11.0631 4.29545 8.78606 5.78324 7.21674 8.5327L8.95371 9.52412C10.2253 7.2963 11.8914 6.29545 14 6.29545V4.29545ZM7.21772 8.53098C5.67371 11.2237 4.95455 14.9296 4.95455 19.5455H6.95455C6.95455 15.0931 7.65584 11.7876 8.95273 9.52583L7.21772 8.53098ZM4.95455 19.5455C4.95455 22.6325 5.27881 25.3038 5.95155 27.5383L7.86663 26.9617C7.26665 24.9689 6.95455 22.5039 6.95455 19.5455H4.95455ZM5.95155 27.5383C6.62162 29.7639 7.6116 31.549 8.97484 32.8084L10.332 31.3393C9.30885 30.3941 8.46929 28.9634 7.86663 26.9617L5.95155 27.5383ZM8.97832 32.8116C10.3746 34.0893 12.0671 34.7273 14 34.7273V32.7273C12.5465 32.7273 11.3413 32.2629 10.3285 31.3361L8.97832 32.8116ZM38.5993 36.2841L38.1546 37.1798L38.5993 36.2841ZM34.747 33.0114L35.5675 32.4397L34.747 33.0114ZM33.1618 28.2727V27.2727H32.1092L32.1631 28.3239L33.1618 28.2727ZM37.2527 28.2727L38.2477 28.1725L38.1571 27.2727H37.2527V28.2727ZM39.4005 32.1932L38.7698 32.9693L38.7775 32.9754L39.4005 32.1932ZM47.8209 32.7216L47.309 31.8626L47.3051 31.8649L47.8209 32.7216ZM50.463 29.9602L49.586 29.4796L49.5844 29.4826L50.463 29.9602ZM50.4289 21.8807L49.5515 22.3607L49.5571 22.3705L50.4289 21.8807ZM43.73 17.9773L43.7194 18.9772L43.7224 18.9772L43.73 17.9773ZM40.4402 18.4716L40.7214 19.4313L40.7302 19.4286L40.4402 18.4716ZM37.6618 19.75L37.542 20.7428L37.929 20.7895L38.2455 20.562L37.6618 19.75ZM33.7073 19.2727L32.7148 19.1506L32.5924 20.1454L33.5875 20.2655L33.7073 19.2727ZM35.8209 2.09091V1.09091H34.9364L34.8284 1.96881L35.8209 2.09091ZM53.9573 2.09091H54.9573V1.09091H53.9573V2.09091ZM53.9573 5.84091V6.84091H54.9573V5.84091H53.9573ZM39.3664 5.84091V4.84091H38.4785L38.3734 5.72254L39.3664 5.84091ZM38.1391 16.1364L37.1461 16.018L37.0128 17.1364H38.1391V16.1364ZM38.3436 16.1364V17.1364H38.6922L38.9653 16.9197L38.3436 16.1364ZM50.122 15.6932L49.5999 16.5461L49.6067 16.5502L50.122 15.6932ZM54.0766 19.8523L53.1974 20.3287L53.1998 20.3331L54.0766 19.8523ZM54.0255 31.8523L53.1572 31.3561L53.1562 31.358L54.0255 31.8523ZM49.9345 35.9773L50.4331 36.8441L50.4374 36.8417L49.9345 35.9773ZM44.0027 36.4773C42.1386 36.4773 40.4925 36.1075 39.044 35.3884L38.1546 37.1798C39.9107 38.0516 41.8668 38.4773 44.0027 38.4773V36.4773ZM39.044 35.3884C37.5831 34.6631 36.4317 33.6801 35.5675 32.4397L33.9266 33.583C34.9942 35.1154 36.411 36.3141 38.1546 37.1798L39.044 35.3884ZM35.5675 32.4397C34.714 31.2147 34.2423 29.8174 34.1605 28.2215L32.1631 28.3239C32.2631 30.2735 32.8482 32.0353 33.9266 33.583L35.5675 32.4397ZM33.1618 29.2727H37.2527V27.2727H33.1618V29.2727ZM36.2578 28.3729C36.4445 30.2269 37.2982 31.7736 38.7699 32.9693L40.031 31.4171C38.9573 30.5446 38.3791 29.4776 38.2477 28.1725L36.2578 28.3729ZM38.7775 32.9754C40.2543 34.1517 42.0133 34.7273 44.0027 34.7273V32.7273C42.424 32.7273 41.1148 32.2802 40.0235 31.411L38.7775 32.9754ZM44.0027 34.7273C45.5973 34.7273 47.0518 34.3519 48.3367 33.5783L47.3051 31.8649C46.3627 32.4322 45.2718 32.7273 44.0027 32.7273V34.7273ZM48.3329 33.5806C49.6148 32.8166 50.6209 31.7632 51.3415 30.4379L49.5844 29.4826C49.0322 30.4982 48.277 31.2857 47.309 31.8626L48.3329 33.5806ZM51.3399 30.4408C52.0766 29.0967 52.4345 27.5932 52.4345 25.9545H50.4345C50.4345 27.2931 50.1448 28.4601 49.586 29.4796L51.3399 30.4408ZM52.4345 25.9545C52.4345 24.28 52.0643 22.7499 51.3007 21.3908L49.5571 22.3705C50.1343 23.3978 50.4345 24.5837 50.4345 25.9545H52.4345ZM51.3061 21.4007C50.563 20.0426 49.5294 18.962 48.2148 18.1759L47.1883 19.8923C48.1919 20.4925 48.9765 21.3096 49.5516 22.3607L51.3061 21.4007ZM48.2148 18.1759C46.8875 17.3821 45.3857 16.9899 43.7376 16.9773L43.7224 18.9772C45.0516 18.9874 46.1975 19.2997 47.1883 19.8923L48.2148 18.1759ZM43.7406 16.9773C42.561 16.9648 41.363 17.1471 40.1502 17.5146L40.7302 19.4286C41.7675 19.1143 42.7627 18.967 43.7194 18.9772L43.7406 16.9773ZM40.1591 17.5119C38.9573 17.864 37.9206 18.3325 37.0782 18.938L38.2455 20.562C38.8576 20.1221 39.6732 19.7383 40.7213 19.4313L40.1591 17.5119ZM37.7816 18.7572L33.8271 18.2799L33.5875 20.2655L37.542 20.7428L37.7816 18.7572ZM34.6998 19.3948L36.8134 2.213L34.8284 1.96881L32.7148 19.1506L34.6998 19.3948ZM35.8209 3.09091H53.9573V1.09091H35.8209V3.09091ZM52.9573 2.09091V5.84091H54.9573V2.09091H52.9573ZM53.9573 4.84091H39.3664V6.84091H53.9573V4.84091ZM38.3734 5.72254L37.1461 16.018L39.1321 16.2547L40.3593 5.95928L38.3734 5.72254ZM38.1391 17.1364H38.3436V15.1364H38.1391V17.1364ZM38.9653 16.9197C39.5742 16.4364 40.3661 16.0132 41.365 15.6662L40.7087 13.777C39.5484 14.18 38.5449 14.7 37.722 15.3531L38.9653 16.9197ZM41.365 15.6662C42.3364 15.3288 43.3503 15.1591 44.4118 15.1591V13.1591C43.1324 13.1591 41.8963 13.3644 40.7087 13.777L41.365 15.6662ZM44.4118 15.1591C46.3812 15.1591 48.1007 15.6282 49.5999 16.546L50.6442 14.8403C48.8024 13.7127 46.7152 13.1591 44.4118 13.1591V15.1591ZM49.6067 16.5502C51.1321 17.4675 52.3261 18.721 53.1974 20.3287L54.9558 19.3758C53.918 17.4608 52.4756 15.9416 50.6374 14.8362L49.6067 16.5502ZM53.1998 20.3331C54.0751 21.9293 54.5255 23.7716 54.5255 25.8864H56.5255C56.5255 23.4784 56.0099 21.2979 54.9534 19.3714L53.1998 20.3331ZM54.5255 25.8864C54.5255 27.9583 54.062 29.7727 53.1572 31.3561L54.8937 32.3484C55.9889 30.4318 56.5255 28.2689 56.5255 25.8864H54.5255ZM53.1562 31.358C52.2554 32.9421 51.0186 34.1898 49.4317 35.1129L50.4374 36.8417C52.3278 35.742 53.8183 34.2397 54.8947 32.3466L53.1562 31.358ZM49.436 35.1104C47.8645 36.0143 46.0625 36.4773 44.0027 36.4773V38.4773C46.3748 38.4773 48.5273 37.9403 50.4331 36.8441L49.436 35.1104Z" fill="url(#paint0_linear_2685_4277)" mask="url(#path-1-outside-1_2685_4277)"/>
<defs>
<linearGradient id="paint0_linear_2685_4277" x1="35.338" y1="6.81818" x2="21.3578" y2="38.9714" gradientUnits="userSpaceOnUse">
<stop stop-color="#FDD012"/>
<stop offset="1" stop-color="#CC8D02"/>
</linearGradient>
</defs>
</svg>
