<svg width="48" height="48" viewBox="0 0 48 48" fill="none" xmlns="http://www.w3.org/2000/svg">
<path fill-rule="evenodd" clip-rule="evenodd" d="M24 5.5C13.7827 5.5 5.5 13.7827 5.5 24C5.5 34.2173 13.7827 42.5 24 42.5C34.2173 42.5 42.5 34.2173 42.5 24C42.5 13.7827 34.2173 5.5 24 5.5ZM2.5 24C2.5 12.1259 12.1259 2.5 24 2.5C35.8741 2.5 45.5 12.1259 45.5 24C45.5 35.8741 35.8741 45.5 24 45.5C12.1259 45.5 2.5 35.8741 2.5 24ZM16.5 18C16.5 17.1716 17.1716 16.5 18 16.5H18.02C18.8484 16.5 19.52 17.1716 19.52 18C19.52 18.8284 18.8484 19.5 18.02 19.5H18C17.1716 19.5 16.5 18.8284 16.5 18ZM28.5 18C28.5 17.1716 29.1716 16.5 30 16.5H30.02C30.8484 16.5 31.52 17.1716 31.52 18C31.52 18.8284 30.8484 19.5 30.02 19.5H30C29.1716 19.5 28.5 18.8284 28.5 18ZM16 28C14.8 28.9 14.8004 28.9005 14.8007 28.901L14.8034 28.9045L14.8079 28.9105L14.8204 28.9267L14.8588 28.976C14.8905 29.016 14.9342 29.07 14.9897 29.1362C15.1006 29.2683 15.2593 29.4494 15.4639 29.6629C15.8719 30.0886 16.4695 30.6508 17.2427 31.2131C18.7834 32.3336 21.0867 33.5 24 33.5C26.9133 33.5 29.2166 32.3336 30.7573 31.2131C31.5305 30.6508 32.1281 30.0886 32.5361 29.6629C32.7407 29.4494 32.8994 29.2683 33.0103 29.1362C33.0658 29.07 33.1095 29.016 33.1412 28.976L33.1796 28.9267L33.1921 28.9105L33.1966 28.9045L33.1985 28.9021C33.1988 28.9016 33.2 28.9 32 28L33.2 28.9C33.6971 28.2373 33.5627 27.2971 32.9 26.8C32.2376 26.3032 31.2979 26.4371 30.8007 27.0991L30.8023 27.097L30.789 27.1139C30.7743 27.1325 30.7487 27.1643 30.7124 27.2076C30.6397 27.2942 30.5249 27.4256 30.3701 27.5871C30.0594 27.9114 29.5945 28.3492 28.9927 28.7869C27.7834 29.6664 26.0867 30.5 24 30.5C21.9133 30.5 20.2166 29.6664 19.0073 28.7869C18.4055 28.3492 17.9406 27.9114 17.6299 27.5871C17.4751 27.4256 17.3603 27.2942 17.2876 27.2076C17.2513 27.1643 17.2257 27.1325 17.211 27.1139L17.1977 27.097C16.7002 26.4363 15.762 26.3035 15.1 26.8C14.4373 27.2971 14.3037 28.2382 14.8007 28.901L16 28Z" fill="#CC8D02"/>
</svg>
