<svg width="48" height="48" viewBox="0 0 48 48" fill="none" xmlns="http://www.w3.org/2000/svg">
<path fill-rule="evenodd" clip-rule="evenodd" d="M14.6073 3.44291C14.8351 2.87343 15.3867 2.5 16 2.5H32C32.6134 2.5 33.1649 2.87343 33.3927 3.44291L41.3927 23.4429C41.5776 23.9051 41.5212 24.4288 41.2421 24.8409C40.9631 25.2531 40.4977 25.5 40 25.5H8.00001C7.50227 25.5 7.03695 25.2531 6.75791 24.8409C6.47886 24.4288 6.42244 23.9051 6.60729 23.4429L14.6073 3.44291ZM17.0156 5.5L10.2156 22.5H37.7845L30.9845 5.5H17.0156Z" fill="#CC8D02"/>
<path fill-rule="evenodd" clip-rule="evenodd" d="M24 22.5C24.8284 22.5 25.5 23.1716 25.5 24V36C25.5 36.8284 24.8284 37.5 24 37.5C23.1716 37.5 22.5 36.8284 22.5 36V24C22.5 23.1716 23.1716 22.5 24 22.5Z" fill="#CC8D02"/>
<path fill-rule="evenodd" clip-rule="evenodd" d="M20 37.5C18.6284 37.5 17.5 38.6284 17.5 40V42.5H30.5V40C30.5 39.337 30.2366 38.7011 29.7678 38.2322C29.2989 37.7634 28.663 37.5 28 37.5H20ZM14.5 40C14.5 36.9716 16.9716 34.5 20 34.5H28C29.4587 34.5 30.8576 35.0795 31.8891 36.1109C32.9205 37.1424 33.5 38.5413 33.5 40V44C33.5 44.8284 32.8284 45.5 32 45.5H16C15.1716 45.5 14.5 44.8284 14.5 44V40Z" fill="#CC8D02"/>
</svg>
