<svg width="40" height="42" viewBox="0 0 40 42" fill="none" xmlns="http://www.w3.org/2000/svg">
<path fill-rule="evenodd" clip-rule="evenodd" d="M13.5251 21.5252C14.1815 20.8688 15.0717 20.5001 16 20.5001H24C24.9283 20.5001 25.8185 20.8688 26.4749 21.5252C27.1312 22.1816 27.5 23.0718 27.5 24.0001V40.0001C27.5 40.8285 26.8284 41.5001 26 41.5001C25.1716 41.5001 24.5 40.8285 24.5 40.0001V24.0001C24.5 23.8675 24.4473 23.7403 24.3536 23.6465C24.2598 23.5527 24.1326 23.5001 24 23.5001H16C15.8674 23.5001 15.7402 23.5527 15.6464 23.6465C15.5527 23.7403 15.5 23.8675 15.5 24.0001V40.0001C15.5 40.8285 14.8284 41.5001 14 41.5001C13.1716 41.5001 12.5 40.8285 12.5 40.0001V24.0001C12.5 23.0718 12.8687 22.1816 13.5251 21.5252Z" fill="#CC8D02"/>
<path fill-rule="evenodd" clip-rule="evenodd" d="M18.3897 4.08877L4.38627 16.0897C4.10852 16.3245 3.8853 16.617 3.73223 16.9468C3.57917 17.2767 3.49991 17.636 3.5 17.9997V36.0001C3.5 36.6631 3.76339 37.299 4.23223 37.7678C4.70107 38.2367 5.33696 38.5001 6 38.5001H34C34.663 38.5001 35.2989 38.2367 35.7678 37.7678C36.2366 37.299 36.5 36.6631 36.5 36.0001V18.0001C36.5001 17.6364 36.4208 17.2767 36.2678 16.9468C36.1147 16.617 35.8915 16.3244 35.6138 16.0897L35.6059 16.083L21.6138 4.0917L21.6103 4.08877C21.1596 3.70926 20.5893 3.5011 20 3.5011C19.4107 3.5011 18.8404 3.70926 18.3897 4.08877ZM16.4497 1.80042C17.4425 0.961417 18.7002 0.501099 20 0.501099C21.2998 0.501099 22.5575 0.961417 23.5503 1.80042L23.5581 1.80707L37.5503 13.7984L37.5545 13.802C38.1636 14.3178 38.6531 14.9601 38.9891 15.6841C39.3258 16.4098 39.5001 17.2001 39.5 18.0001V36.0001C39.5 37.4587 38.9205 38.8577 37.8891 39.8891C36.8576 40.9206 35.4587 41.5001 34 41.5001H6C4.54131 41.5001 3.14236 40.9206 2.11091 39.8891C1.07946 38.8577 0.5 37.4587 0.5 36.0001V18.0004C0.499861 17.2005 0.674218 16.4098 1.01092 15.6841C1.34688 14.9601 1.8364 14.3179 2.44547 13.802L16.4497 1.80042Z" fill="#CC8D02"/>
</svg>
