<svg width="40" height="40" viewBox="0 0 40 40" fill="none" xmlns="http://www.w3.org/2000/svg">
<path fill-rule="evenodd" clip-rule="evenodd" d="M4 3.5C3.72386 3.5 3.5 3.72386 3.5 4V36C3.5 36.2761 3.72386 36.5 4 36.5H14C14.2761 36.5 14.5 36.2761 14.5 36V4C14.5 3.72386 14.2761 3.5 14 3.5H4ZM0.5 4C0.5 2.067 2.067 0.5 4 0.5H14C15.933 0.5 17.5 2.067 17.5 4V36C17.5 37.933 15.933 39.5 14 39.5H4C2.067 39.5 0.5 37.933 0.5 36V4Z" fill="#CC8D02"/>
<path fill-rule="evenodd" clip-rule="evenodd" d="M26 3.5C25.7239 3.5 25.5 3.72386 25.5 4V14C25.5 14.2761 25.7239 14.5 26 14.5H36C36.2761 14.5 36.5 14.2761 36.5 14V4C36.5 3.72386 36.2761 3.5 36 3.5H26ZM22.5 4C22.5 2.067 24.067 0.5 26 0.5H36C37.933 0.5 39.5 2.067 39.5 4V14C39.5 15.933 37.933 17.5 36 17.5H26C24.067 17.5 22.5 15.933 22.5 14V4Z" fill="#CC8D02"/>
<path fill-rule="evenodd" clip-rule="evenodd" d="M26 25.5C25.7239 25.5 25.5 25.7239 25.5 26V36C25.5 36.2761 25.7239 36.5 26 36.5H36C36.2761 36.5 36.5 36.2761 36.5 36V26C36.5 25.7239 36.2761 25.5 36 25.5H26ZM22.5 26C22.5 24.067 24.067 22.5 26 22.5H36C37.933 22.5 39.5 24.067 39.5 26V36C39.5 37.933 37.933 39.5 36 39.5H26C24.067 39.5 22.5 37.933 22.5 36V26Z" fill="#CC8D02"/>
</svg>
