<svg width="48" height="48" viewBox="0 0 48 48" fill="none" xmlns="http://www.w3.org/2000/svg">
<path fill-rule="evenodd" clip-rule="evenodd" d="M10.1109 8.11091C11.1424 7.07946 12.5413 6.5 14 6.5H34C35.4587 6.5 36.8576 7.07946 37.8891 8.11091C38.9205 9.14236 39.5 10.5413 39.5 12V18C39.5 18.8284 38.8284 19.5 38 19.5C37.1716 19.5 36.5 18.8284 36.5 18V12C36.5 11.337 36.2366 10.7011 35.7678 10.2322C35.2989 9.76339 34.663 9.5 34 9.5H14C13.337 9.5 12.7011 9.76339 12.2322 10.2322C11.7634 10.7011 11.5 11.337 11.5 12V18C11.5 18.8284 10.8284 19.5 10 19.5C9.17157 19.5 8.5 18.8284 8.5 18V12C8.5 10.5413 9.07946 9.14236 10.1109 8.11091Z" fill="#CC8D02"/>
<path fill-rule="evenodd" clip-rule="evenodd" d="M6.11091 18.1109C7.14236 17.0795 8.54131 16.5 10 16.5C11.4587 16.5 12.8576 17.0795 13.8891 18.1109C14.9205 19.1424 15.5 20.5413 15.5 22V24.5H32.5V22C32.5 20.5413 33.0795 19.1424 34.1109 18.1109C35.1424 17.0795 36.5413 16.5 38 16.5C39.4587 16.5 40.8576 17.0795 41.8891 18.1109C42.9205 19.1424 43.5 20.5413 43.5 22V32C43.5 33.4587 42.9205 34.8576 41.8891 35.8891C40.8576 36.9205 39.4587 37.5 38 37.5H10C8.54131 37.5 7.14236 36.9205 6.11091 35.8891C5.07946 34.8576 4.5 33.4587 4.5 32V22C4.5 20.5413 5.07946 19.1424 6.11091 18.1109ZM10 19.5C9.33696 19.5 8.70107 19.7634 8.23223 20.2322C7.76339 20.7011 7.5 21.337 7.5 22V32C7.5 32.663 7.76339 33.2989 8.23223 33.7678C8.70107 34.2366 9.33696 34.5 10 34.5H38C38.663 34.5 39.2989 34.2366 39.7678 33.7678C40.2366 33.2989 40.5 32.663 40.5 32V22C40.5 21.337 40.2366 20.7011 39.7678 20.2322C39.2989 19.7634 38.663 19.5 38 19.5C37.337 19.5 36.7011 19.7634 36.2322 20.2322C35.7634 20.7011 35.5 21.337 35.5 22V25C35.5 25.663 35.2366 26.2989 34.7678 26.7678C34.2989 27.2366 33.663 27.5 33 27.5H15C14.337 27.5 13.7011 27.2366 13.2322 26.7678C12.7634 26.2989 12.5 25.663 12.5 25V22C12.5 21.337 12.2366 20.7011 11.7678 20.2322C11.2989 19.7634 10.663 19.5 10 19.5Z" fill="#CC8D02"/>
<path fill-rule="evenodd" clip-rule="evenodd" d="M10 34.5C10.8284 34.5 11.5 35.1716 11.5 36V40C11.5 40.8284 10.8284 41.5 10 41.5C9.17157 41.5 8.5 40.8284 8.5 40V36C8.5 35.1716 9.17157 34.5 10 34.5Z" fill="#CC8D02"/>
<path fill-rule="evenodd" clip-rule="evenodd" d="M38 34.5C38.8284 34.5 39.5 35.1716 39.5 36V40C39.5 40.8284 38.8284 41.5 38 41.5C37.1716 41.5 36.5 40.8284 36.5 40V36C36.5 35.1716 37.1716 34.5 38 34.5Z" fill="#CC8D02"/>
</svg>
