<svg width="44" height="44" viewBox="0 0 44 44" fill="none" xmlns="http://www.w3.org/2000/svg">
<path fill-rule="evenodd" clip-rule="evenodd" d="M21.3706 2.6406C24.1517 0.895809 27.4426 0.146492 30.705 0.515226C33.9674 0.883959 37.008 2.34891 39.3295 4.67044C41.651 6.99196 43.116 10.0326 43.4847 13.295C43.8535 16.5573 43.1041 19.8482 41.3594 22.6294C39.6146 25.4105 36.9776 27.5172 33.8799 28.6048C31.0839 29.5864 28.062 29.6854 25.22 28.9013L24.2328 29.8885C23.2016 30.9199 21.8028 31.4996 20.3443 31.5H20C19.8674 31.5 19.7402 31.5526 19.6464 31.6464C19.5527 31.7402 19.5 31.8673 19.5 32V34C19.5 34.9282 19.1313 35.8185 18.4749 36.4748C17.8185 37.1312 16.9283 37.5 16 37.5H14C13.8674 37.5 13.7402 37.5526 13.6464 37.6464C13.5527 37.7402 13.5 37.8673 13.5 38V40C13.5 40.9282 13.1313 41.8185 12.4749 42.4748C11.8185 43.1312 10.9283 43.5 10 43.5H4C3.07175 43.5 2.18151 43.1312 1.52513 42.4748C0.868748 41.8185 0.5 40.9282 0.5 40V35.656C0.500311 34.1975 1.07992 32.7985 2.11134 31.7673L15.0987 18.7799C14.3146 15.938 14.4136 12.9161 15.3952 10.1201C16.4828 7.02234 18.5895 4.38538 21.3706 2.6406ZM30.3681 3.49624C27.7807 3.2038 25.1706 3.79809 22.9649 5.18188C20.7592 6.56568 19.0884 8.65706 18.2258 11.1139C17.3632 13.5707 17.36 16.2476 18.2165 18.7065C18.4058 19.2499 18.2676 19.8537 17.8607 20.2606L4.23266 33.8886C3.76386 34.3573 3.50023 34.9931 3.5 35.656V40C3.5 40.1326 3.55268 40.2597 3.64645 40.3535C3.74021 40.4473 3.86739 40.5 4 40.5H10C10.1326 40.5 10.2598 40.4473 10.3536 40.3535C10.4473 40.2597 10.5 40.1326 10.5 40V38C10.5 37.0717 10.8687 36.1815 11.5251 35.5251C12.1815 34.8687 13.0717 34.5 14 34.5H16C16.1326 34.5 16.2598 34.4473 16.3536 34.3535C16.4473 34.2597 16.5 34.1326 16.5 34V32C16.5 31.0717 16.8687 30.1815 17.5251 29.5251C18.1815 28.8687 19.0717 28.5 20 28.5H20.3437C21.0065 28.4997 21.6425 28.2363 22.1112 27.7675L23.7393 26.1393C24.1462 25.7324 24.75 25.5941 25.2934 25.7834C27.7524 26.64 30.4292 26.6367 32.8861 25.7742C35.3429 24.9116 37.4343 23.2408 38.8181 21.035C40.2019 18.8293 40.7962 16.2193 40.5037 13.6319C40.2113 11.0445 39.0494 8.63296 37.2082 6.79176C35.367 4.95055 32.9554 3.78869 30.3681 3.49624Z" fill="#CC8D02"/>
<path d="M31 14C31.5523 14 32 13.5522 32 13C32 12.4477 31.5523 12 31 12C30.4477 12 30 12.4477 30 13C30 13.5522 30.4477 14 31 14Z" fill="#CC8D02"/>
<path fill-rule="evenodd" clip-rule="evenodd" d="M31 13.5C31.2761 13.5 31.5 13.2761 31.5 13C31.5 12.7238 31.2761 12.5 31 12.5C30.7239 12.5 30.5 12.7238 30.5 13C30.5 13.2761 30.7239 13.5 31 13.5ZM28.5 13C28.5 11.6192 29.6193 10.5 31 10.5C32.3807 10.5 33.5 11.6192 33.5 13C33.5 14.3807 32.3807 15.5 31 15.5C29.6193 15.5 28.5 14.3807 28.5 13Z" fill="#CC8D02"/>
</svg>
