<svg width="48" height="48" viewBox="0 0 48 48" fill="none" xmlns="http://www.w3.org/2000/svg">
<path fill-rule="evenodd" clip-rule="evenodd" d="M24 5.5C13.7827 5.5 5.5 13.7827 5.5 24C5.5 34.2173 13.7827 42.5 24 42.5C34.2173 42.5 42.5 34.2173 42.5 24C42.5 13.7827 34.2173 5.5 24 5.5ZM2.5 24C2.5 12.1259 12.1259 2.5 24 2.5C35.8741 2.5 45.5 12.1259 45.5 24C45.5 35.8741 35.8741 45.5 24 45.5C12.1259 45.5 2.5 35.8741 2.5 24Z" fill="#CC8D02"/>
<path fill-rule="evenodd" clip-rule="evenodd" d="M31.0607 18.9393C31.6464 19.5251 31.6464 20.4749 31.0607 21.0607L23.0607 29.0607C22.4749 29.6464 21.5251 29.6464 20.9393 29.0607L16.9393 25.0607C16.3536 24.4749 16.3536 23.5251 16.9393 22.9393C17.5251 22.3536 18.4749 22.3536 19.0607 22.9393L22 25.8787L28.9393 18.9393C29.5251 18.3536 30.4749 18.3536 31.0607 18.9393Z" fill="#CC8D02"/>
</svg>
