<svg width="48" height="48" viewBox="0 0 48 48" fill="none" xmlns="http://www.w3.org/2000/svg">
<path fill-rule="evenodd" clip-rule="evenodd" d="M38.1609 2.50868C38.6685 2.56345 39.1133 2.8726 39.3416 3.3292C41.3896 7.42521 43.5 12.0277 43.5 20C43.5 31.8547 33.2425 41.4989 22.002 41.5C22.0013 41.5 22.0007 41.5 22 41.5V40L22.0045 41.5C22.0037 41.5 22.0028 41.5 22.002 41.5C18.1147 41.5112 14.3652 40.0613 11.4967 37.4377C10.4394 36.4707 9.53022 35.3702 8.78688 34.1722C9.50769 33.5225 10.3422 32.9632 11.2857 32.5086C11.8943 33.5066 12.6447 34.4221 13.5214 35.224C15.8352 37.3402 18.8598 38.5095 21.9955 38.5L22 38.5C31.6387 38.5 40.5 30.1447 40.5 20C40.5 13.9345 39.1982 10.0668 37.6394 6.69478C38.15 6.16084 38.6536 5.57903 39.1676 4.94164L38 4.00002L36.6584 4.67084C36.9902 5.33444 37.3202 6.00422 37.6394 6.69478C36.0552 8.35144 34.4043 9.54723 32.1696 10.5121C29.3188 11.743 25.554 12.5787 19.8842 13.6728L19.8526 13.6786C16.7618 14.2066 13.9823 15.877 12.0654 18.3585C10.1485 20.84 9.23421 23.9512 9.50391 27.0752C9.58377 28.0003 9.76572 28.9064 10.0424 29.7787C9.08734 30.2338 8.21396 30.7767 7.42751 31.3971C6.94568 30.1 6.63596 28.7341 6.51503 27.3333C6.1806 23.4595 7.31429 19.6015 9.69123 16.5245C12.0648 13.4518 15.505 11.3821 19.3311 10.7242C19.326 10.7252 19.3209 10.7262 19.3158 10.7272L19.6 12.2L19.3474 10.7214C19.342 10.7224 19.3366 10.7233 19.3311 10.7242C25.0521 9.61996 28.4835 8.83602 30.9804 7.7579C33.3754 6.72379 34.9413 5.40336 36.8324 3.05839C37.1528 2.66101 37.6534 2.4539 38.1609 2.50868ZM13.8682 28.5287C12.4791 28.8039 11.2007 29.2268 10.0424 29.7787C10.346 30.7361 10.7637 31.6526 11.2857 32.5086C12.2328 32.0523 13.2897 31.7016 14.4515 31.4714L14.4518 31.4714C17.0562 30.9548 19.6582 29.8906 21.8545 28.7116C24.0391 27.5389 25.9235 26.1978 27.0607 25.0607C27.6464 24.4749 27.6464 23.5251 27.0607 22.9394C26.4749 22.3536 25.5251 22.3536 24.9393 22.9394C24.0765 23.8022 22.4609 24.9811 20.4355 26.0684C18.4219 27.1493 16.104 28.0852 13.8685 28.5286M7.42751 31.3971C7.78709 32.3651 8.24252 33.2948 8.78688 34.1722C6.63808 36.1087 5.5 38.8471 5.5 42C5.5 42.8284 4.82843 43.5 4 43.5C3.17157 43.5 2.5 42.8284 2.5 42C2.5 37.6568 4.2577 33.8975 7.42751 31.3971Z" fill="#CC8D02"/>
</svg>
