<svg width="58" height="39" viewBox="0 0 58 39" fill="none" xmlns="http://www.w3.org/2000/svg">
<mask id="path-1-outside-1_2685_4267" maskUnits="userSpaceOnUse" x="0" y="0" width="58" height="39" fill="black">
<rect fill="white" width="58" height="39"/>
<path d="M14 37.4773C11.4318 37.4773 9.24432 36.7784 7.4375 35.3807C5.63068 33.9716 4.25 31.9318 3.29545 29.2614C2.34091 26.5795 1.86364 23.3409 1.86364 19.5455C1.86364 15.7727 2.34091 12.5511 3.29545 9.88068C4.26136 7.19886 5.64773 5.15341 7.45455 3.74432C9.27273 2.32386 11.4545 1.61364 14 1.61364C16.5455 1.61364 18.7216 2.32386 20.5284 3.74432C22.3466 5.15341 23.733 7.19886 24.6875 9.88068C25.6534 12.5511 26.1364 15.7727 26.1364 19.5455C26.1364 23.3409 25.6591 26.5795 24.7045 29.2614C23.75 31.9318 22.3693 33.9716 20.5625 35.3807C18.7557 36.7784 16.5682 37.4773 14 37.4773ZM14 33.7273C16.5455 33.7273 18.5227 32.5 19.9318 30.0455C21.3409 27.5909 22.0455 24.0909 22.0455 19.5455C22.0455 16.5227 21.7216 13.9489 21.0739 11.8239C20.4375 9.69886 19.517 8.07954 18.3125 6.96591C17.1193 5.85227 15.6818 5.29545 14 5.29545C11.4773 5.29545 9.50568 6.53977 8.08523 9.02841C6.66477 11.5057 5.95455 15.0114 5.95455 19.5455C5.95455 22.5682 6.27273 25.1364 6.90909 27.25C7.54545 29.3636 8.46023 30.9716 9.65341 32.0739C10.858 33.1761 12.3068 33.7273 14 33.7273ZM44.8891 37.4773C42.6391 37.4773 40.6334 37.0909 38.872 36.3182C37.122 35.5455 35.73 34.4716 34.6959 33.0966C33.6732 31.7102 33.1164 30.1023 33.0255 28.2727H37.3209C37.4118 29.3977 37.7982 30.3693 38.48 31.1875C39.1618 31.9943 40.0539 32.6193 41.1561 33.0625C42.2584 33.5057 43.48 33.7273 44.8209 33.7273C46.3209 33.7273 47.6505 33.4659 48.8095 32.9432C49.9686 32.4205 50.8777 31.6932 51.5368 30.7614C52.1959 29.8295 52.5255 28.75 52.5255 27.5227C52.5255 26.2386 52.2073 25.108 51.5709 24.1307C50.9345 23.142 50.0027 22.3693 48.7755 21.8125C47.5482 21.2557 46.0482 20.9773 44.2755 20.9773H41.48V17.2273H44.2755C45.6618 17.2273 46.8777 16.9773 47.9232 16.4773C48.98 15.9773 49.8039 15.2727 50.3948 14.3636C50.997 13.4545 51.2982 12.3864 51.2982 11.1591C51.2982 9.97727 51.0368 8.94886 50.5141 8.07386C49.9914 7.19886 49.2527 6.51704 48.2982 6.02841C47.355 5.53977 46.2414 5.29545 44.9573 5.29545C43.7527 5.29545 42.6164 5.51705 41.5482 5.96023C40.4914 6.39205 39.6277 7.02273 38.9573 7.85227C38.2868 8.67045 37.9232 9.65909 37.8664 10.8182H33.7755C33.8436 8.98864 34.3948 7.38636 35.4289 6.01136C36.463 4.625 37.8152 3.54545 39.4857 2.77273C41.1675 2 43.0141 1.61364 45.0255 1.61364C47.1845 1.61364 49.0368 2.05114 50.5823 2.92614C52.1277 3.78977 53.3152 4.93182 54.1448 6.35227C54.9743 7.77273 55.3891 9.30682 55.3891 10.9545C55.3891 12.9205 54.872 14.5966 53.838 15.983C52.8152 17.3693 51.4232 18.3295 49.6618 18.8636V19.1364C51.8664 19.5 53.588 20.4375 54.8266 21.9489C56.0652 23.4489 56.6845 25.3068 56.6845 27.5227C56.6845 29.4205 56.1675 31.125 55.1334 32.6364C54.1107 34.1364 52.713 35.3182 50.9402 36.1818C49.1675 37.0455 47.1505 37.4773 44.8891 37.4773Z"/>
</mask>
<path d="M7.4375 35.3807L6.82253 36.1692L6.82563 36.1716L7.4375 35.3807ZM3.29545 29.2614L2.35335 29.5967L2.3538 29.598L3.29545 29.2614ZM3.29545 9.88068L2.35462 9.54182L2.3538 9.54409L3.29545 9.88068ZM7.45455 3.74432L8.06952 4.53287L8.07019 4.53234L7.45455 3.74432ZM20.5284 3.74432L19.9104 4.53048L19.9158 4.53473L20.5284 3.74432ZM24.6875 9.88068L23.7454 10.216L23.7471 10.2208L24.6875 9.88068ZM24.7045 29.2614L25.6462 29.598L25.6466 29.5967L24.7045 29.2614ZM20.5625 35.3807L21.1744 36.1716L21.1775 36.1692L20.5625 35.3807ZM19.9318 30.0455L19.0646 29.5476L19.9318 30.0455ZM21.0739 11.8239L20.1159 12.1107L20.1173 12.1154L21.0739 11.8239ZM18.3125 6.96591L17.6302 7.69697L17.6336 7.70018L18.3125 6.96591ZM8.08523 9.02841L8.95274 9.52583L8.95371 9.52412L8.08523 9.02841ZM6.90909 27.25L5.95155 27.5383L6.90909 27.25ZM9.65341 32.0739L8.97483 32.8084L8.97832 32.8116L9.65341 32.0739ZM14 36.4773C11.6243 36.4773 9.6594 35.8352 8.04937 34.5897L6.82563 36.1716C8.82924 37.7216 11.2393 38.4773 14 38.4773V36.4773ZM8.05247 34.5921C6.42716 33.3246 5.14299 31.4591 4.23711 28.9248L2.3538 29.598C3.35701 32.4045 4.83421 34.6186 6.82253 36.1692L8.05247 34.5921ZM4.23756 28.926C3.33172 26.3811 2.86364 23.2624 2.86364 19.5455H0.863636C0.863636 23.4194 1.3501 26.778 2.35335 29.5967L4.23756 28.926ZM2.86364 19.5455C2.86364 15.8518 3.33157 12.7506 4.23711 10.2173L2.3538 9.54409C1.35025 12.3517 0.863636 15.6936 0.863636 19.5455H2.86364ZM4.23629 10.2195C5.15379 7.67213 6.44411 5.80048 8.06952 4.53287L6.83958 2.95577C4.85134 4.50634 3.36894 6.7256 2.35462 9.54182L4.23629 10.2195ZM8.07019 4.53234C9.69423 3.26356 11.6532 2.61364 14 2.61364V0.613635C11.2558 0.613635 8.85122 1.38417 6.8389 2.95629L8.07019 4.53234ZM14 2.61364C16.3468 2.61364 18.2989 3.26355 19.9104 4.53046L21.1465 2.95817C19.1443 1.38418 16.7441 0.613635 14 0.613635V2.61364ZM19.9158 4.53473C21.5506 5.80171 22.8397 7.67145 23.7454 10.216L25.6296 9.54536C24.6262 6.72627 23.1425 4.50511 21.141 2.9539L19.9158 4.53473ZM23.7471 10.2208C24.663 12.753 25.1364 15.8529 25.1364 19.5455H27.1364C27.1364 15.6926 26.6438 12.3493 25.6279 9.54054L23.7471 10.2208ZM25.1364 19.5455C25.1364 23.2624 24.6683 26.3811 23.7624 28.926L25.6466 29.5967C26.6499 26.778 27.1364 23.4194 27.1364 19.5455H25.1364ZM23.7629 28.9248C22.857 31.4591 21.5728 33.3246 19.9475 34.5921L21.1775 36.1692C23.1658 34.6186 24.643 32.4045 25.6462 29.598L23.7629 28.9248ZM19.9506 34.5897C18.3406 35.8352 16.3757 36.4773 14 36.4773V38.4773C16.7607 38.4773 19.1708 37.7216 21.1744 36.1716L19.9506 34.5897ZM14 34.7273C16.9496 34.7273 19.2358 33.2664 20.7991 30.5433L19.0646 29.5476C17.8096 31.7336 16.1413 32.7273 14 32.7273V34.7273ZM20.7991 30.5433C22.3327 27.8718 23.0455 24.1703 23.0455 19.5455H21.0455C21.0455 24.0115 20.3491 27.31 19.0646 29.5476L20.7991 30.5433ZM23.0455 19.5455C23.0455 16.457 22.7152 13.7789 22.0304 11.5323L20.1173 12.1154C20.728 14.1188 21.0455 16.5885 21.0455 19.5455H23.0455ZM22.0318 11.537C21.3616 9.29877 20.3657 7.50224 18.9914 6.23164L17.6336 7.70018C18.6684 8.65684 19.5134 10.099 20.1159 12.1107L22.0318 11.537ZM18.9948 6.23485C17.6103 4.94266 15.9266 4.29545 14 4.29545V6.29545C15.4371 6.29545 16.6283 6.76189 17.6302 7.69696L18.9948 6.23485ZM14 4.29545C11.0631 4.29545 8.78606 5.78324 7.21674 8.5327L8.95371 9.52412C10.2253 7.2963 11.8914 6.29545 14 6.29545V4.29545ZM7.21772 8.53098C5.67371 11.2237 4.95455 14.9296 4.95455 19.5455H6.95455C6.95455 15.0931 7.65584 11.7876 8.95273 9.52583L7.21772 8.53098ZM4.95455 19.5455C4.95455 22.6325 5.27881 25.3038 5.95155 27.5383L7.86663 26.9617C7.26665 24.9689 6.95455 22.5039 6.95455 19.5455H4.95455ZM5.95155 27.5383C6.62162 29.7639 7.6116 31.549 8.97484 32.8084L10.332 31.3393C9.30885 30.3941 8.46929 28.9634 7.86663 26.9617L5.95155 27.5383ZM8.97832 32.8116C10.3746 34.0893 12.0671 34.7273 14 34.7273V32.7273C12.5465 32.7273 11.3413 32.2629 10.3285 31.3361L8.97832 32.8116ZM38.872 36.3182L38.4681 37.233L38.4703 37.2339L38.872 36.3182ZM34.6959 33.0966L33.8912 33.6903L33.8967 33.6976L34.6959 33.0966ZM33.0255 28.2727V27.2727H31.9745L32.0267 28.3224L33.0255 28.2727ZM37.3209 28.2727L38.3177 28.1922L38.2434 27.2727H37.3209V28.2727ZM38.48 31.1875L37.7118 31.8277L37.7162 31.833L38.48 31.1875ZM41.1561 33.0625L40.7831 33.9903L41.1561 33.0625ZM51.5368 30.7614L50.7204 30.1839L51.5368 30.7614ZM51.5709 24.1307L50.73 24.6719L50.7329 24.6764L51.5709 24.1307ZM48.7755 21.8125L48.3623 22.7232L48.3623 22.7232L48.7755 21.8125ZM41.48 20.9773H40.48V21.9773H41.48V20.9773ZM41.48 17.2273V16.2273H40.48V17.2273H41.48ZM47.9232 16.4773L47.4955 15.5733L47.4917 15.5751L47.9232 16.4773ZM50.3948 14.3636L49.5611 13.8113L49.5563 13.8186L50.3948 14.3636ZM50.5141 8.07386L51.3726 7.56101L50.5141 8.07386ZM48.2982 6.02841L47.8382 6.91634L47.8425 6.91856L48.2982 6.02841ZM41.5482 5.96023L41.9264 6.88595L41.9314 6.88388L41.5482 5.96023ZM38.9573 7.85227L39.7308 8.48611L39.735 8.48086L38.9573 7.85227ZM37.8664 10.8182V11.8182H38.8185L38.8652 10.8671L37.8664 10.8182ZM33.7755 10.8182L32.7761 10.7809L32.7375 11.8182H33.7755V10.8182ZM35.4289 6.01136L36.2281 6.61242L36.2304 6.60926L35.4289 6.01136ZM39.4857 2.77273L39.0682 1.86405L39.0658 1.86513L39.4857 2.77273ZM50.5823 2.92614L50.0896 3.79635L50.0945 3.79908L50.5823 2.92614ZM54.1448 6.35227L53.2812 6.85657L53.2812 6.85657L54.1448 6.35227ZM53.838 15.983L53.0364 15.385L53.0332 15.3893L53.838 15.983ZM49.6618 18.8636L49.3716 17.9067L48.6618 18.1219V18.8636H49.6618ZM49.6618 19.1364H48.6618V19.9849L49.4991 20.123L49.6618 19.1364ZM54.8266 21.9489L54.0531 22.5827L54.0555 22.5856L54.8266 21.9489ZM55.1334 32.6364L54.3081 32.0717L54.3072 32.073L55.1334 32.6364ZM50.9402 36.1818L51.3782 37.0808L50.9402 36.1818ZM44.8891 36.4773C42.7542 36.4773 40.8888 36.111 39.2738 35.4024L38.4703 37.2339C40.378 38.0709 42.524 38.4773 44.8891 38.4773V36.4773ZM39.276 35.4034C37.6645 34.6918 36.4153 33.7191 35.4951 32.4955L33.8967 33.6976C35.0447 35.2241 36.5796 36.3991 38.4681 37.233L39.276 35.4034ZM35.5006 32.5029C34.6022 31.2851 34.106 29.8692 34.0242 28.2231L32.0267 28.3224C32.1267 30.3353 32.7441 32.1354 33.8912 33.6902L35.5006 32.5029ZM33.0255 29.2727H37.3209V27.2727H33.0255V29.2727ZM36.3242 28.3533C36.4306 29.6709 36.8898 30.8413 37.7118 31.8277L39.2482 30.5473C38.7066 29.8974 38.393 29.1245 38.3177 28.1922L36.3242 28.3533ZM37.7162 31.833C38.5158 32.7792 39.5486 33.494 40.7831 33.9903L41.5292 32.1347C40.5591 31.7447 39.8078 31.2094 39.2438 30.542L37.7162 31.833ZM40.7831 33.9903C42.0183 34.4869 43.3685 34.7273 44.8209 34.7273V32.7273C43.5915 32.7273 42.4986 32.5244 41.5292 32.1347L40.7831 33.9903ZM44.8209 34.7273C46.4375 34.7273 47.9112 34.4453 49.2207 33.8548L48.3984 32.0316C47.3897 32.4865 46.2043 32.7273 44.8209 32.7273V34.7273ZM49.2207 33.8548C50.5232 33.2673 51.5798 32.4323 52.3532 31.3388L50.7204 30.1839C50.1756 30.9541 49.4141 31.5736 48.3984 32.0316L49.2207 33.8548ZM52.3532 31.3388C53.1409 30.2252 53.5255 28.9404 53.5255 27.5227H51.5255C51.5255 28.5596 51.2509 29.4339 50.7204 30.1839L52.3532 31.3388ZM53.5255 27.5227C53.5255 26.0652 53.1616 24.7409 52.4089 23.585L50.7329 24.6764C51.253 25.475 51.5255 26.412 51.5255 27.5227H53.5255ZM52.4118 23.5894C51.6567 22.4164 50.5647 21.5262 49.1886 20.9018L48.3623 22.7232C49.4407 23.2124 50.2123 23.8676 50.73 24.6719L52.4118 23.5894ZM49.1886 20.9018C47.7975 20.2707 46.1478 19.9773 44.2755 19.9773V21.9773C45.9486 21.9773 47.2989 22.2407 48.3623 22.7232L49.1886 20.9018ZM44.2755 19.9773H41.48V21.9773H44.2755V19.9773ZM42.48 20.9773V17.2273H40.48V20.9773H42.48ZM41.48 18.2273H44.2755V16.2273H41.48V18.2273ZM44.2755 18.2273C45.7822 18.2273 47.1506 17.9553 48.3546 17.3794L47.4917 15.5751C46.6049 15.9993 45.5414 16.2273 44.2755 16.2273V18.2273ZM48.3508 17.3812C49.5616 16.8084 50.5334 15.9853 51.2332 14.9086L49.5563 13.8186C49.0743 14.5602 48.3984 15.1462 47.4955 15.5733L48.3508 17.3812ZM51.2284 14.9159C51.9525 13.8231 52.2982 12.5573 52.2982 11.1591H50.2982C50.2982 12.2154 50.0416 13.086 49.5611 13.8113L51.2284 14.9159ZM52.2982 11.1591C52.2982 9.8259 52.0018 8.61435 51.3726 7.56101L49.6556 8.58672C50.0718 9.28338 50.2982 10.1286 50.2982 11.1591H52.2982ZM51.3726 7.56101C50.7485 6.51638 49.8663 5.70772 48.7539 5.13826L47.8425 6.91856C48.6392 7.32637 49.2342 7.88135 49.6556 8.58672L51.3726 7.56101ZM48.7582 5.14049C47.6461 4.56436 46.3684 4.29545 44.9573 4.29545V6.29545C46.1144 6.29545 47.0639 6.51519 47.8382 6.91632L48.7582 5.14049ZM44.9573 4.29545C43.6268 4.29545 42.3597 4.5409 41.165 5.03657L41.9314 6.88388C42.8731 6.49319 43.8787 6.29545 44.9573 6.29545V4.29545ZM41.1699 5.03452C39.9683 5.52549 38.9634 6.25381 38.1795 7.22369L39.735 8.48086C40.2921 7.79164 41.0144 7.2586 41.9264 6.88593L41.1699 5.03452ZM38.1838 7.21845C37.3642 8.21861 36.9338 9.41798 36.8676 10.7692L38.8652 10.8671C38.9126 9.9002 39.2094 9.1223 39.7308 8.4861L38.1838 7.21845ZM37.8664 9.81818H33.7755V11.8182H37.8664V9.81818ZM34.7748 10.8554C34.8359 9.21602 35.3247 7.81359 36.2281 6.61242L34.6297 5.41031C33.4648 6.95913 32.8514 8.76125 32.7761 10.7809L34.7748 10.8554ZM36.2304 6.60926C37.1587 5.36484 38.3761 4.38781 39.9055 3.68032L39.0658 1.86513C37.2543 2.7031 35.7673 3.88516 34.6273 5.41347L36.2304 6.60926ZM39.9032 3.6814C41.443 2.97392 43.1455 2.61364 45.0255 2.61364V0.613635C42.8826 0.613635 40.892 1.02608 39.0682 1.86405L39.9032 3.6814ZM45.0255 2.61364C47.0489 2.61364 48.7237 3.02299 50.0896 3.79634L51.075 2.05593C49.35 1.07928 47.3202 0.613635 45.0255 0.613635V2.61364ZM50.0945 3.79908C51.4963 4.58247 52.5486 5.60208 53.2812 6.85657L55.0083 5.84797C54.0818 4.26155 52.7591 2.99707 51.0701 2.05319L50.0945 3.79908ZM53.2812 6.85657C54.0213 8.12372 54.3891 9.48372 54.3891 10.9545H56.3891C56.3891 9.12991 55.9274 7.42174 55.0083 5.84797L53.2812 6.85657ZM54.3891 10.9545C54.3891 12.7357 53.9244 14.1945 53.0364 15.3851L54.6395 16.5809C55.8197 14.9986 56.3891 13.1052 56.3891 10.9545H54.3891ZM53.0332 15.3893C52.1474 16.5901 50.9418 17.4305 49.3716 17.9067L49.952 19.8206C51.9045 19.2285 53.4831 18.1485 54.6427 16.5766L53.0332 15.3893ZM48.6618 18.8636V19.1364H50.6618V18.8636H48.6618ZM49.4991 20.123C51.5006 20.4532 52.9905 21.2861 54.0532 22.5827L55.6 21.315C54.1854 19.5889 52.2321 18.5468 49.8246 18.1497L49.4991 20.123ZM54.0555 22.5856C55.1258 23.8817 55.6845 25.505 55.6845 27.5227H57.6845C57.6845 25.1086 57.0047 23.016 55.5977 21.3121L54.0555 22.5856ZM55.6845 27.5227C55.6845 29.2267 55.2241 30.7329 54.3081 32.0717L55.9587 33.201C57.1109 31.5171 57.6845 29.6142 57.6845 27.5227H55.6845ZM54.3072 32.073C53.3908 33.417 52.1325 34.4886 50.5023 35.2828L51.3782 37.0808C53.2935 36.1477 54.8305 34.8557 55.9596 33.1997L54.3072 32.073ZM50.5023 35.2828C48.8847 36.0709 47.021 36.4773 44.8891 36.4773V38.4773C47.2799 38.4773 49.4503 38.02 51.3782 37.0808L50.5023 35.2828Z" fill="url(#paint0_linear_2685_4267)" mask="url(#path-1-outside-1_2685_4267)"/>
<defs>
<linearGradient id="paint0_linear_2685_4267" x1="36.5493" y1="6.81818" x2="22.8821" y2="39.2992" gradientUnits="userSpaceOnUse">
<stop stop-color="#FDD012"/>
<stop offset="1" stop-color="#CC8D02"/>
</linearGradient>
</defs>
</svg>
