<svg width="57" height="39" viewBox="0 0 57 39" fill="none" xmlns="http://www.w3.org/2000/svg">
<mask id="path-1-outside-1_2685_4262" maskUnits="userSpaceOnUse" x="0" y="0" width="57" height="39" fill="black">
<rect fill="white" width="57" height="39"/>
<path d="M14 37.4773C11.4318 37.4773 9.24432 36.7784 7.4375 35.3807C5.63068 33.9716 4.25 31.9318 3.29545 29.2614C2.34091 26.5795 1.86364 23.3409 1.86364 19.5455C1.86364 15.7727 2.34091 12.5511 3.29545 9.88068C4.26136 7.19886 5.64773 5.15341 7.45455 3.74432C9.27273 2.32386 11.4545 1.61364 14 1.61364C16.5455 1.61364 18.7216 2.32386 20.5284 3.74432C22.3466 5.15341 23.733 7.19886 24.6875 9.88068C25.6534 12.5511 26.1364 15.7727 26.1364 19.5455C26.1364 23.3409 25.6591 26.5795 24.7045 29.2614C23.75 31.9318 22.3693 33.9716 20.5625 35.3807C18.7557 36.7784 16.5682 37.4773 14 37.4773ZM14 33.7273C16.5455 33.7273 18.5227 32.5 19.9318 30.0455C21.3409 27.5909 22.0455 24.0909 22.0455 19.5455C22.0455 16.5227 21.7216 13.9489 21.0739 11.8239C20.4375 9.69886 19.517 8.07954 18.3125 6.96591C17.1193 5.85227 15.6818 5.29545 14 5.29545C11.4773 5.29545 9.50568 6.53977 8.08523 9.02841C6.66477 11.5057 5.95455 15.0114 5.95455 19.5455C5.95455 22.5682 6.27273 25.1364 6.90909 27.25C7.54545 29.3636 8.46023 30.9716 9.65341 32.0739C10.858 33.1761 12.3068 33.7273 14 33.7273ZM33.0936 37V33.9318L44.6164 21.3182C45.9686 19.8409 47.0823 18.5568 47.9573 17.4659C48.8323 16.3636 49.48 15.3295 49.9005 14.3636C50.3323 13.3864 50.5482 12.3636 50.5482 11.2955C50.5482 10.0682 50.2527 9.00568 49.6618 8.10795C49.0823 7.21023 48.2868 6.51704 47.2755 6.02841C46.2641 5.53977 45.1277 5.29545 43.8664 5.29545C42.5255 5.29545 41.355 5.57386 40.355 6.13068C39.3664 6.67614 38.5993 7.44318 38.0539 8.43182C37.5198 9.42045 37.2527 10.5795 37.2527 11.9091H33.23C33.23 9.86364 33.7016 8.06818 34.6448 6.52273C35.588 4.97727 36.872 3.77273 38.497 2.90909C40.1334 2.04545 41.9686 1.61364 44.0027 1.61364C46.0482 1.61364 47.8607 2.04545 49.4402 2.90909C51.0198 3.77273 52.2584 4.9375 53.1561 6.40341C54.0539 7.86932 54.5027 9.5 54.5027 11.2955C54.5027 12.5795 54.2698 13.8352 53.8039 15.0625C53.3493 16.2784 52.5539 17.6364 51.4175 19.1364C50.2925 20.625 48.73 22.4432 46.73 24.5909L38.8891 32.9773V33.25H55.1164V37H33.0936Z"/>
</mask>
<path d="M7.4375 35.3807L6.82253 36.1692L6.82563 36.1716L7.4375 35.3807ZM3.29545 29.2614L2.35335 29.5967L2.3538 29.598L3.29545 29.2614ZM3.29545 9.88068L2.35462 9.54182L2.3538 9.54409L3.29545 9.88068ZM7.45455 3.74432L8.06952 4.53287L8.07019 4.53234L7.45455 3.74432ZM20.5284 3.74432L19.9104 4.53048L19.9158 4.53473L20.5284 3.74432ZM24.6875 9.88068L23.7454 10.216L23.7471 10.2208L24.6875 9.88068ZM24.7045 29.2614L25.6462 29.598L25.6466 29.5967L24.7045 29.2614ZM20.5625 35.3807L21.1744 36.1716L21.1775 36.1692L20.5625 35.3807ZM19.9318 30.0455L19.0646 29.5476L19.9318 30.0455ZM21.0739 11.8239L20.1159 12.1107L20.1173 12.1154L21.0739 11.8239ZM18.3125 6.96591L17.6302 7.69697L17.6336 7.70018L18.3125 6.96591ZM8.08523 9.02841L8.95274 9.52583L8.95371 9.52412L8.08523 9.02841ZM6.90909 27.25L5.95155 27.5383L6.90909 27.25ZM9.65341 32.0739L8.97483 32.8084L8.97832 32.8116L9.65341 32.0739ZM14 36.4773C11.6243 36.4773 9.6594 35.8352 8.04937 34.5897L6.82563 36.1716C8.82924 37.7216 11.2393 38.4773 14 38.4773V36.4773ZM8.05247 34.5921C6.42716 33.3246 5.14299 31.4591 4.23711 28.9248L2.3538 29.598C3.35701 32.4045 4.83421 34.6186 6.82253 36.1692L8.05247 34.5921ZM4.23756 28.926C3.33172 26.3811 2.86364 23.2624 2.86364 19.5455H0.863636C0.863636 23.4194 1.3501 26.778 2.35335 29.5967L4.23756 28.926ZM2.86364 19.5455C2.86364 15.8518 3.33157 12.7506 4.23711 10.2173L2.3538 9.54409C1.35025 12.3517 0.863636 15.6936 0.863636 19.5455H2.86364ZM4.23629 10.2195C5.15379 7.67213 6.44411 5.80048 8.06952 4.53287L6.83958 2.95577C4.85134 4.50634 3.36894 6.7256 2.35462 9.54182L4.23629 10.2195ZM8.07019 4.53234C9.69423 3.26356 11.6532 2.61364 14 2.61364V0.613635C11.2558 0.613635 8.85122 1.38417 6.8389 2.95629L8.07019 4.53234ZM14 2.61364C16.3468 2.61364 18.2989 3.26355 19.9104 4.53046L21.1465 2.95817C19.1443 1.38418 16.7441 0.613635 14 0.613635V2.61364ZM19.9158 4.53473C21.5506 5.80171 22.8397 7.67145 23.7454 10.216L25.6296 9.54536C24.6262 6.72627 23.1425 4.50511 21.141 2.9539L19.9158 4.53473ZM23.7471 10.2208C24.663 12.753 25.1364 15.8529 25.1364 19.5455H27.1364C27.1364 15.6926 26.6438 12.3493 25.6279 9.54054L23.7471 10.2208ZM25.1364 19.5455C25.1364 23.2624 24.6683 26.3811 23.7624 28.926L25.6466 29.5967C26.6499 26.778 27.1364 23.4194 27.1364 19.5455H25.1364ZM23.7629 28.9248C22.857 31.4591 21.5728 33.3246 19.9475 34.5921L21.1775 36.1692C23.1658 34.6186 24.643 32.4045 25.6462 29.598L23.7629 28.9248ZM19.9506 34.5897C18.3406 35.8352 16.3757 36.4773 14 36.4773V38.4773C16.7607 38.4773 19.1708 37.7216 21.1744 36.1716L19.9506 34.5897ZM14 34.7273C16.9496 34.7273 19.2358 33.2664 20.7991 30.5433L19.0646 29.5476C17.8096 31.7336 16.1413 32.7273 14 32.7273V34.7273ZM20.7991 30.5433C22.3327 27.8718 23.0455 24.1703 23.0455 19.5455H21.0455C21.0455 24.0115 20.3491 27.31 19.0646 29.5476L20.7991 30.5433ZM23.0455 19.5455C23.0455 16.457 22.7152 13.7789 22.0304 11.5323L20.1173 12.1154C20.728 14.1188 21.0455 16.5885 21.0455 19.5455H23.0455ZM22.0318 11.537C21.3616 9.29877 20.3657 7.50224 18.9914 6.23164L17.6336 7.70018C18.6684 8.65684 19.5134 10.099 20.1159 12.1107L22.0318 11.537ZM18.9948 6.23485C17.6103 4.94266 15.9266 4.29545 14 4.29545V6.29545C15.4371 6.29545 16.6283 6.76189 17.6302 7.69696L18.9948 6.23485ZM14 4.29545C11.0631 4.29545 8.78606 5.78324 7.21674 8.5327L8.95371 9.52412C10.2253 7.2963 11.8914 6.29545 14 6.29545V4.29545ZM7.21772 8.53098C5.67371 11.2237 4.95455 14.9296 4.95455 19.5455H6.95455C6.95455 15.0931 7.65584 11.7876 8.95273 9.52583L7.21772 8.53098ZM4.95455 19.5455C4.95455 22.6325 5.27881 25.3038 5.95155 27.5383L7.86663 26.9617C7.26665 24.9689 6.95455 22.5039 6.95455 19.5455H4.95455ZM5.95155 27.5383C6.62162 29.7639 7.6116 31.549 8.97484 32.8084L10.332 31.3393C9.30885 30.3941 8.46929 28.9634 7.86663 26.9617L5.95155 27.5383ZM8.97832 32.8116C10.3746 34.0893 12.0671 34.7273 14 34.7273V32.7273C12.5465 32.7273 11.3413 32.2629 10.3285 31.3361L8.97832 32.8116ZM33.0936 37H32.0936V38H33.0936V37ZM33.0936 33.9318L32.3553 33.2574L32.0936 33.5438V33.9318H33.0936ZM44.6164 21.3182L43.8787 20.643L43.8781 20.6437L44.6164 21.3182ZM47.9573 17.4659L48.7374 18.0916L48.7405 18.0876L47.9573 17.4659ZM49.9005 14.3636L48.9858 13.9595L48.9836 13.9645L49.9005 14.3636ZM49.6618 8.10795L48.8216 8.65034L48.8265 8.65776L49.6618 8.10795ZM47.2755 6.02841L47.7105 5.12799L47.2755 6.02841ZM40.355 6.13068L40.8381 7.00627L40.8415 7.00437L40.355 6.13068ZM38.0539 8.43182L37.1783 7.94872L37.174 7.95651L38.0539 8.43182ZM37.2527 11.9091V12.9091H38.2527V11.9091H37.2527ZM33.23 11.9091H32.23V12.9091H33.23V11.9091ZM34.6448 6.52273L35.4984 7.04367L34.6448 6.52273ZM38.497 2.90909L38.0303 2.0247L38.0277 2.02605L38.497 2.90909ZM49.4402 2.90909L49.92 2.03168L49.4402 2.90909ZM53.8039 15.0625L52.869 14.7076L52.8672 14.7123L53.8039 15.0625ZM51.4175 19.1364L50.6204 18.5325L50.6197 18.5334L51.4175 19.1364ZM46.73 24.5909L47.4605 25.2739L47.4618 25.2724L46.73 24.5909ZM38.8891 32.9773L38.1586 32.2943L37.8891 32.5826V32.9773H38.8891ZM38.8891 33.25H37.8891V34.25H38.8891V33.25ZM55.1164 33.25H56.1164V32.25H55.1164V33.25ZM55.1164 37V38H56.1164V37H55.1164ZM34.0936 37V33.9318H32.0936V37H34.0936ZM33.8319 34.6063L45.3547 21.9926L43.8781 20.6437L32.3553 33.2574L33.8319 34.6063ZM45.354 21.9934C46.7153 20.5063 47.8443 19.205 48.7373 18.0916L47.1772 16.8402C46.3202 17.9087 45.222 19.1755 43.8787 20.643L45.354 21.9934ZM48.7405 18.0876C49.6527 16.9385 50.3528 15.8299 50.8174 14.7628L48.9836 13.9645C48.6072 14.8292 48.0119 15.7887 47.174 16.8442L48.7405 18.0876ZM50.8151 14.7678C51.3032 13.6632 51.5482 12.5029 51.5482 11.2955H49.5482C49.5482 12.2244 49.3613 13.1095 48.9858 13.9595L50.8151 14.7678ZM51.5482 11.2955C51.5482 9.90129 51.2101 8.64142 50.4971 7.55814L48.8265 8.65776C49.2953 9.36995 49.5482 10.2351 49.5482 11.2955H51.5482ZM50.502 7.56558C49.8176 6.50553 48.8784 5.69224 47.7105 5.12799L46.8404 6.92882C47.6953 7.34184 48.3469 7.91492 48.8217 8.65032L50.502 7.56558ZM47.7105 5.12799C46.5476 4.56615 45.2597 4.29545 43.8664 4.29545V6.29545C44.9957 6.29545 45.9806 6.51339 46.8404 6.92882L47.7105 5.12799ZM43.8664 4.29545C42.3845 4.29545 41.041 4.60414 39.8685 5.25699L40.8415 7.00437C41.669 6.54358 42.6664 6.29545 43.8664 6.29545V4.29545ZM39.8719 5.2551C38.718 5.89173 37.8149 6.79485 37.1783 7.94874L38.9294 8.91489C39.3837 8.09151 40.0147 7.46054 40.8381 7.00626L39.8719 5.2551ZM37.174 7.95651C36.5478 9.11575 36.2527 10.444 36.2527 11.9091H38.2527C38.2527 10.7151 38.4918 9.72516 38.9337 8.90712L37.174 7.95651ZM37.2527 10.9091H33.23V12.9091H37.2527V10.9091ZM34.23 11.9091C34.23 10.023 34.6629 8.41261 35.4984 7.04367L33.7912 6.00178C32.7403 7.72375 32.23 9.70427 32.23 11.9091H34.23ZM35.4984 7.04367C36.3466 5.65378 37.4968 4.57312 38.9664 3.79212L38.0277 2.02605C36.2472 2.97233 34.8293 4.30077 33.7912 6.00179L35.4984 7.04367ZM38.9638 3.79347C40.4424 3.0131 42.1148 2.61364 44.0027 2.61364V0.613635C41.8224 0.613635 39.8244 1.0778 38.0303 2.0247L38.9638 3.79347ZM44.0027 2.61364C45.9037 2.61364 47.5471 3.01371 48.9605 3.7865L49.92 2.03168C48.1743 1.07719 46.1927 0.613635 44.0027 0.613635V2.61364ZM48.9605 3.7865C50.3943 4.57048 51.5012 5.61584 52.3033 6.92566L54.0089 5.88116C53.0156 4.25916 51.6452 2.97497 49.92 2.03168L48.9605 3.7865ZM52.3033 6.92566C53.1004 8.22721 53.5027 9.67573 53.5027 11.2955H55.5027C55.5027 9.32427 55.0073 7.51143 54.0089 5.88116L52.3033 6.92566ZM53.5027 11.2955C53.5027 12.4555 53.2928 13.5911 52.869 14.7076L54.7388 15.4174C55.2467 14.0793 55.5027 12.7035 55.5027 11.2955H53.5027ZM52.8672 14.7123C52.4581 15.8066 51.722 17.0784 50.6204 18.5325L52.2146 19.7402C53.3857 18.1944 54.2405 16.7502 54.7406 15.4127L52.8672 14.7123ZM50.6197 18.5334C49.5235 19.984 47.9864 21.7743 45.9982 23.9094L47.4618 25.2724C49.4736 23.112 51.0615 21.266 52.2153 19.7393L50.6197 18.5334ZM45.9995 23.908L38.1586 32.2943L39.6196 33.6602L47.4605 25.2739L45.9995 23.908ZM37.8891 32.9773V33.25H39.8891V32.9773H37.8891ZM38.8891 34.25H55.1164V32.25H38.8891V34.25ZM54.1164 33.25V37H56.1164V33.25H54.1164ZM55.1164 36H33.0936V38H55.1164V36Z" fill="url(#paint0_linear_2685_4262)" mask="url(#path-1-outside-1_2685_4262)"/>
<defs>
<linearGradient id="paint0_linear_2685_4262" x1="35.338" y1="6.81818" x2="21.3578" y2="38.9714" gradientUnits="userSpaceOnUse">
<stop stop-color="#FDD012"/>
<stop offset="1" stop-color="#CC8D02"/>
</linearGradient>
</defs>
</svg>
