<svg width="48" height="48" viewBox="0 0 48 48" fill="none" xmlns="http://www.w3.org/2000/svg">
<path fill-rule="evenodd" clip-rule="evenodd" d="M10 7.5C8.61929 7.5 7.5 8.61929 7.5 10V16.5H14.5V7.5H10ZM10 4.5C6.96243 4.5 4.5 6.96243 4.5 10V38C4.5 41.0376 6.96243 43.5 10 43.5H38C41.0376 43.5 43.5 41.0376 43.5 38V10C43.5 6.96243 41.0376 4.5 38 4.5H10ZM17.5 7.5V16.5H30.5V7.5H17.5ZM33.5 7.5V16.5H40.5V10C40.5 8.61929 39.3807 7.5 38 7.5H33.5ZM40.5 19.5H25.5V28.5H40.5V19.5ZM40.5 31.5H33.5V40.5H38C39.3807 40.5 40.5 39.3807 40.5 38V31.5ZM30.5 40.5V31.5H17.5V40.5H30.5ZM14.5 40.5V31.5H7.5V38C7.5 39.3807 8.61929 40.5 10 40.5H14.5ZM7.5 28.5H22.5V19.5H7.5V28.5Z" fill="#CC8D02"/>
</svg>
